advent_pro_bld_it.ufo
<glyph name="quotedbl" format="1">
  <advance width="283"/>
  <unicode hex="0022"/>
  <outline>
    <contour>
      <point x="311.514" y="694" type="line"/>
      <point x="323.526" y="750.512"/>
      <point x="412.728" y="751.461"/>
      <point x="400.514" y="694" type="curve"/>
      <point x="364.771" y="587" type="line"/>
      <point x="301.771" y="587" type="line"/>
    </contour>
    <contour>
      <point x="175.514" y="694" type="line"/>
      <point x="187.564" y="750.691"/>
      <point x="277.737" y="751.505"/>
      <point x="265.514" y="694" type="curve"/>
      <point x="228.771" y="587" type="line"/>
      <point x="166.771" y="587" type="line"/>
    </contour>
  </outline>
</glyph>
<glyph name="percent" format="1">
  <advance width="728"/>
  <unicode hex="0025"/>
  <outline>
    <contour>
      <point x="35" y="0" type="line"/>
      <point x="720.365" y="698" type="line"/>
      <point x="837.365" y="698" type="line"/>
      <point x="149" y="0" type="line"/>
    </contour>
    <contour>
      <point x="338.553" y="713" type="curve" smooth="yes"/>
      <point x="417.306" y="713"/>
      <point x="469.744" y="648.033"/>
      <point x="452.732" y="568" type="curve" smooth="yes"/>
      <point x="435.593" y="487.368"/>
      <point x="355.236" y="422"/>
      <point x="276.699" y="422" type="curve" smooth="yes"/>
      <point x="195.911" y="422"/>
      <point x="144.561" y="487.218"/>
      <point x="161.732" y="568" type="curve" smooth="yes"/>
      <point x="178.712" y="647.883"/>
      <point x="257.982" y="713"/>
    </contour>
    <contour>
      <point x="318.785" y="620" type="curve" smooth="yes"/>
      <point x="288.908" y="620"/>
      <point x="260.755" y="596.333"/>
      <point x="254.732" y="568" type="curve" smooth="yes"/>
      <point x="248.558" y="538.955"/>
      <point x="266.452" y="515"/>
      <point x="296.467" y="515" type="curve" smooth="yes"/>
      <point x="323.399" y="515"/>
      <point x="353.562" y="538.974"/>
      <point x="359.732" y="568" type="curve" smooth="yes"/>
      <point x="365.759" y="596.352"/>
      <point x="345.855" y="620"/>
    </contour>
    <contour>
      <point x="605.878" y="277" type="curve" smooth="yes"/>
      <point x="685.945" y="277"/>
      <point x="737.202" y="212.661"/>
      <point x="719.845" y="131" type="curve" smooth="yes"/>
      <point x="702.859" y="51.0861"/>
      <point x="623.934" y="-14"/>
      <point x="544.024" y="-14" type="curve" smooth="yes"/>
      <point x="463.269" y="-14"/>
      <point x="411.815" y="50.8791"/>
      <point x="428.845" y="131" type="curve" smooth="yes"/>
      <point x="446.158" y="212.453"/>
      <point x="525.281" y="277"/>
    </contour>
    <contour>
      <point x="586.11" y="184" type="curve" smooth="yes"/>
      <point x="557.779" y="184"/>
      <point x="528.718" y="158.629"/>
      <point x="522.845" y="131" type="curve" smooth="yes"/>
      <point x="516.807" y="102.592"/>
      <point x="535.381" y="79"/>
      <point x="563.792" y="79" type="curve" smooth="yes"/>
      <point x="591.436" y="79"/>
      <point x="619.821" y="102.661"/>
      <point x="625.845" y="131" type="curve" smooth="yes"/>
      <point x="631.732" y="158.698"/>
      <point x="613.833" y="184"/>
    </contour>
  </outline>
</glyph>
<glyph name="parenright" format="1">
  <advance width="242"/>
  <unicode hex="0029"/>
  <outline>
    <contour>
      <point x="255.446" y="816" type="line"/>
      <point x="336.682" y="763.815"/>
      <point x="346.196" y="683.092"/>
      <point x="329.384" y="604" type="curve" smooth="yes"/>
      <point x="220.98" y="94" type="line" smooth="yes"/>
      <point x="203.752" y="12.9471"/>
      <point x="166.932" y="-59.9903"/>
      <point x="56.3434" y="-116" type="curve"/>
      <point x="18.5605" y="-35" type="line"/>
      <point x="17.4966" y="-34.7778"/>
      <point x="92.8513" y="-1.22224"/>
      <point x="113.893" y="103" type="curve" smooth="yes"/>
      <point x="131.199" y="184.417"/>
      <point x="160.461" y="322.083"/>
      <point x="220.809" y="606" type="curve" smooth="yes"/>
      <point x="241.677" y="701.562"/>
      <point x="181.258" y="728.34"/>
      <point x="181.954" y="729" type="curve"/>
    </contour>
  </outline>
</glyph>
<glyph name="hyphen" format="1">
  <advance width="393"/>
  <unicode hex="002D"/>
  <outline>
    <contour>
      <point x="100.056" y="306" type="line"/>
      <point x="122.804" y="413" type="line"/>
      <point x="441.804" y="413" type="line"/>
      <point x="419.056" y="306" type="line"/>
    </contour>
  </outline>
</glyph>
<glyph name="one" format="1">
  <advance width="285"/>
  <unicode hex="0031"/>
  <outline>
    <contour>
      <point x="151.273" y="627" type="line"/>
      <point x="148.862" y="627.417"/>
      <point x="233.048" y="643.583"/>
      <point x="280.365" y="698" type="curve"/>
      <point x="390.365" y="698" type="line"/>
      <point x="242" y="0" type="line"/>
      <point x="131" y="0" type="line"/>
      <point x="250.394" y="557" type="line"/>
      <point x="226.708" y="540.833"/>
      <point x="161.547" y="530.667"/>
      <point x="163.868" y="531" type="curve"/>
    </contour>
  </outline>
</glyph>
<glyph name="nine" format="1">
  <advance width="484"/>
  <unicode hex="0039"/>
  <outline>
    <contour>
      <point x="388.49" y="708" type="curve" smooth="yes"/>
      <point x="446.49" y="708"/>
      <point x="492.168" y="687.667"/>
      <point x="525.524" y="647" type="curve"/>
      <point x="557.263" y="605"/>
      <point x="566.898" y="554.667"/>
      <point x="554.428" y="496" type="curve" smooth="yes"/>
      <point x="499.588" y="238" type="line" smooth="yes"/>
      <point x="488.252" y="184.667"/>
      <point x="463.483" y="134"/>
      <point x="416.43" y="82" type="curve"/>
      <point x="370.227" y="34"/>
      <point x="295.121" y="-1"/>
      <point x="205.787" y="-1" type="curve" smooth="yes"/>
      <point x="170.787" y="-1" type="line"/>
      <point x="192.256" y="100" type="line"/>
      <point x="231.256" y="100" type="line" smooth="yes"/>
      <point x="272.589" y="100"/>
      <point x="307.323" y="116"/>
      <point x="333.758" y="140" type="curve" smooth="yes"/>
      <point x="363.993" y="169.333"/>
      <point x="384.92" y="211.333"/>
      <point x="395.69" y="262" type="curve" smooth="yes"/>
      <point x="406.955" y="315" type="line"/>
      <point x="407.042" y="316.583"/>
      <point x="366.364" y="285.167"/>
      <point x="298.791" y="286" type="curve"/>
      <point x="241.458" y="286"/>
      <point x="193.163" y="305"/>
      <point x="160.332" y="345" type="curve"/>
      <point x="128.734" y="387.667"/>
      <point x="119.1" y="438"/>
      <point x="131.428" y="496" type="curve" smooth="yes"/>
      <point x="143.898" y="554.667"/>
      <point x="174.93" y="605"/>
      <point x="224.524" y="647" type="curve"/>
      <point x="275.835" y="687.667"/>
      <point x="330.49" y="708"/>
    </contour>
    <contour>
      <point x="365.321" y="599" type="curve" smooth="yes"/>
      <point x="308.644" y="599"/>
      <point x="251.872" y="554.543"/>
      <point x="239.641" y="497" type="curve" smooth="yes"/>
      <point x="227.704" y="440.845"/>
      <point x="264.959" y="394"/>
      <point x="321.747" y="394" type="curve" smooth="yes"/>
      <point x="379.319" y="394"/>
      <point x="433.734" y="440.983"/>
      <point x="445.641" y="497" type="curve" smooth="yes"/>
      <point x="457.901" y="554.681"/>
      <point x="423.004" y="599"/>
    </contour>
  </outline>
</glyph>
<glyph name="question" format="1">
  <advance width="426"/>
  <unicode hex="003F"/>
  <outline>
    <contour>
      <point x="138.868" y="531" type="line"/>
      <point x="164.68" y="652.437"/>
      <point x="268.43" y="708"/>
      <point x="356.49" y="708" type="curve" smooth="yes"/>
      <point x="459.794" y="708"/>
      <point x="530.962" y="634.946"/>
      <point x="506.742" y="521" type="curve" smooth="yes"/>
      <point x="492.855" y="455.667"/>
      <point x="448.453" y="413"/>
      <point x="395.583" y="365" type="curve" smooth="yes"/>
      <point x="330.084" y="306.604"/>
      <point x="309" y="282"/>
      <point x="292.637" y="210" type="curve" smooth="yes"/>
      <point x="273.294" y="119" type="line"/>
      <point x="164.294" y="119" type="line"/>
      <point x="184.062" y="212" type="line" smooth="yes"/>
      <point x="202.176" y="297.22"/>
      <point x="253.16" y="354.77"/>
      <point x="300.023" y="400" type="curve" smooth="yes"/>
      <point x="345.196" y="443.826"/>
      <point x="387.124" y="480.456"/>
      <point x="396.592" y="525" type="curve" smooth="yes"/>
      <point x="405.16" y="565.306"/>
      <point x="383.197" y="603"/>
      <point x="335.172" y="603" type="curve" smooth="yes"/>
      <point x="300.146" y="603"/>
      <point x="262.242" y="579.809"/>
      <point x="251.868" y="531" type="curve"/>
    </contour>
    <contour>
      <point x="215.893" y="103" type="curve" smooth="yes"/>
      <point x="249.227" y="103"/>
      <point x="269.225" y="76.3333"/>
      <point x="262.14" y="43" type="curve" smooth="yes"/>
      <point x="255.055" y="9.66667"/>
      <point x="223.72" y="-17"/>
      <point x="190.387" y="-17" type="curve" smooth="yes"/>
      <point x="157.053" y="-17"/>
      <point x="136.055" y="9.66667"/>
      <point x="143.14" y="43" type="curve" smooth="yes"/>
      <point x="150.225" y="76.3333"/>
      <point x="182.56" y="103"/>
    </contour>
  </outline>
</glyph>
<glyph name="A" format="1">
  <advance width="543"/>
  <unicode hex="0041"/>
  <outline>
    <contour>
      <point x="520" y="0" type="line"/>
      <point x="389" y="0" type="line"/>
      <point x="387.898" y="183" type="line"/>
      <point x="226.898" y="183" type="line"/>
      <point x="148" y="0" type="line"/>
      <point x="24" y="0" type="line"/>
      <point x="341.364" y="698" type="line"/>
      <point x="496.364" y="698" type="line"/>
    </contour>
    <contour>
      <point x="278.767" y="300" type="line"/>
      <point x="387.767" y="300" type="line"/>
      <point x="386.969" y="555" type="line"/>
    </contour>
  </outline>
</glyph>
<glyph name="B" format="1">
  <advance width="505"/>
  <unicode hex="0042"/>
  <outline>
    <contour>
      <point x="373" y="698" type="line" smooth="yes"/>
      <point x="503.14" y="698"/>
      <point x="570.896" y="624.71"/>
      <point x="547.089" y="512.71" type="curve" smooth="yes"/>
      <point x="534.052" y="451.376"/>
      <point x="503.14" y="414.667"/>
      <point x="452.622" y="384" type="curve"/>
      <point x="451.984" y="381" type="line"/>
      <point x="504.982" y="354.333"/>
      <point x="536.846" y="295.667"/>
      <point x="517.574" y="205" type="curve" smooth="yes"/>
      <point x="491.217" y="81"/>
      <point x="398.667" y="0"/>
      <point x="260" y="0" type="curve" smooth="yes"/>
      <point x="41" y="0" type="line"/>
      <point x="189.364" y="698" type="line"/>
    </contour>
    <contour>
      <point x="286.786" y="413" type="line" smooth="yes"/>
      <point x="364.832" y="413"/>
      <point x="402.674" y="435.999"/>
      <point x="417.341" y="505" type="curve" smooth="yes"/>
      <point x="430.661" y="567.667"/>
      <point x="401.983" y="588"/>
      <point x="333.983" y="588" type="curve" smooth="yes"/>
      <point x="275.983" y="588" type="line"/>
      <point x="238.786" y="413" type="line"/>
    </contour>
    <contour>
      <point x="252.468" y="101" type="line" smooth="yes"/>
      <point x="300.805" y="101"/>
      <point x="373.664" y="120.742"/>
      <point x="392" y="207" type="curve" smooth="yes"/>
      <point x="406.17" y="273.667"/>
      <point x="371.589" y="307"/>
      <point x="286.256" y="307" type="curve" smooth="yes"/>
      <point x="216.256" y="307" type="line"/>
      <point x="172.469" y="101" type="line"/>
    </contour>
  </outline>
</glyph>
<glyph name="C" format="1">
  <advance width="426"/>
  <unicode hex="0043"/>
  <outline>
    <contour>
      <point x="465.708" y="582" type="line"/>
      <point x="441.309" y="592.667"/>
      <point x="405.988" y="599"/>
      <point x="375.321" y="599" type="curve" smooth="yes"/>
      <point x="309.988" y="599"/>
      <point x="268.149" y="574.667"/>
      <point x="254.829" y="512" type="curve" smooth="yes"/>
      <point x="185.323" y="185" type="line" smooth="yes"/>
      <point x="172.228" y="123.395"/>
      <point x="200.998" y="100"/>
      <point x="260.256" y="100" type="curve" smooth="yes"/>
      <point x="320.596" y="100"/>
      <point x="396.314" y="127"/>
      <point x="406.995" y="127" type="curve"/>
      <point x="400.889" y="23" type="line"/>
      <point x="338.071" y="0.333334"/>
      <point x="281.258" y="-11.3333"/>
      <point x="230.449" y="-12" type="curve"/>
      <point x="177.116" y="-12"/>
      <point x="130.233" y="2.66667"/>
      <point x="101.802" y="32" type="curve" smooth="yes"/>
      <point x="72.6036" y="64"/>
      <point x="60.1606" y="113.667"/>
      <point x="74.8979" y="183" type="curve" smooth="yes"/>
      <point x="144.191" y="509" type="line" smooth="yes"/>
      <point x="172.081" y="640.209"/>
      <point x="268.912" y="710"/>
      <point x="378.915" y="710" type="curve" smooth="yes"/>
      <point x="426.915" y="710"/>
      <point x="472.435" y="698.333"/>
      <point x="515.476" y="675" type="curve"/>
    </contour>
  </outline>
</glyph>
<glyph name="I" format="1">
  <advance width="239"/>
  <unicode hex="0049"/>
  <outline>
    <contour>
      <point x="149.046" y="593" type="line"/>
      <point x="171.364" y="698" type="line"/>
      <point x="344.364" y="698" type="line"/>
      <point x="196" y="0" type="line"/>
      <point x="86" y="0" type="line"/>
      <point x="211.621" y="591" type="line"/>
    </contour>
  </outline>
</glyph>
<glyph name="N" format="1">
  <advance width="576"/>
  <unicode hex="004E"/>
  <outline>
    <contour>
      <point x="681.395" y="698" type="line"/>
      <point x="533" y="0" type="line"/>
      <point x="422" y="0" type="line"/>
      <point x="251.347" y="472" type="line"/>
      <point x="151" y="0" type="line"/>
      <point x="41" y="0" type="line"/>
      <point x="189.395" y="698" type="line"/>
      <point x="299.395" y="698" type="line"/>
      <point x="466.646" y="210" type="line"/>
      <point x="570.395" y="698" type="line"/>
    </contour>
  </outline>
</glyph>
<glyph name="O" format="1">
  <advance width="493"/>
  <unicode hex="004F"/>
  <outline>
    <contour>
      <point x="143.554" y="506" type="line" smooth="yes"/>
      <point x="172.461" y="642"/>
      <point x="267.978" y="715"/>
      <point x="399.978" y="715" type="curve" smooth="yes"/>
      <point x="531.978" y="715"/>
      <point x="591.115" y="635.667"/>
      <point x="563.341" y="505" type="curve" smooth="yes"/>
      <point x="495.323" y="185" type="line" smooth="yes"/>
      <point x="469.381" y="62.9546"/>
      <point x="370.432" y="-11"/>
      <point x="244.662" y="-11" type="curve" smooth="yes"/>
      <point x="126.464" y="-11"/>
      <point x="47.9067" y="56.0164"/>
      <point x="75.323" y="185" type="curve" smooth="yes"/>
    </contour>
    <contour>
      <point x="189.362" y="204" type="line" smooth="yes"/>
      <point x="175.812" y="140.254"/>
      <point x="200.794" y="101"/>
      <point x="267.468" y="101" type="curve" smooth="yes"/>
      <point x="330.46" y="101"/>
      <point x="376.435" y="143.188"/>
      <point x="389.787" y="206" type="curve" smooth="yes"/>
      <point x="445.689" y="469" type="line" smooth="yes"/>
      <point x="463.827" y="554.333"/>
      <point x="450.442" y="598"/>
      <point x="373.109" y="598" type="curve" smooth="yes"/>
      <point x="303.775" y="598"/>
      <point x="264.323" y="556.667"/>
      <point x="245.902" y="470" type="curve" smooth="yes"/>
    </contour>
  </outline>
</glyph>
<glyph name="P" format="1">
  <advance width="507"/>
  <unicode hex="0050"/>
  <outline>
    <contour>
      <point x="406.364" y="698" type="line" smooth="yes"/>
      <point x="511.111" y="698"/>
      <point x="613.859" y="648.576"/>
      <point x="571.863" y="451" type="curve" smooth="yes"/>
      <point x="525.911" y="234.813"/>
      <point x="406.922" y="195"/>
      <point x="299.449" y="195" type="curve" smooth="yes"/>
      <point x="295.782" y="195"/>
      <point x="190.782" y="195"/>
      <point x="192.449" y="195" type="curve"/>
      <point x="151" y="0" type="line"/>
      <point x="41" y="0" type="line"/>
      <point x="189.364" y="698" type="line"/>
    </contour>
    <contour>
      <point x="214.767" y="300" type="line"/>
      <point x="212.017" y="300"/>
      <point x="279.017" y="300"/>
      <point x="280.767" y="300" type="curve"/>
      <point x="384.575" y="300"/>
      <point x="432.372" y="316.96"/>
      <point x="460.863" y="451" type="curve" smooth="yes"/>
      <point x="487.746" y="577.474"/>
      <point x="444.527" y="588"/>
      <point x="341.983" y="588" type="curve" smooth="yes"/>
      <point x="275.983" y="588" type="line"/>
    </contour>
  </outline>
</glyph>
<glyph name="T" format="1">
  <advance width="431"/>
  <unicode hex="0054"/>
  <outline>
    <contour>
      <point x="392.796" y="587" type="line"/>
      <point x="268" y="0" type="line"/>
      <point x="158" y="0" type="line"/>
      <point x="282.796" y="587" type="line"/>
      <point x="137.796" y="587" type="line"/>
      <point x="161.395" y="698" type="line"/>
      <point x="564.395" y="698" type="line"/>
      <point x="540.796" y="587" type="line"/>
    </contour>
  </outline>
</glyph>
<glyph name="U" format="1">
  <advance width="499"/>
  <unicode hex="0055"/>
  <outline>
    <contour>
      <point x="498.323" y="185" type="line" smooth="yes"/>
      <point x="484.011" y="117.667"/>
      <point x="452.787" y="68"/>
      <point x="404.652" y="36" type="curve" smooth="yes"/>
      <point x="357.325" y="4.66667"/>
      <point x="304.995" y="-11"/>
      <point x="247.662" y="-11" type="curve" smooth="yes"/>
      <point x="190.995" y="-11"/>
      <point x="144.659" y="4.66667"/>
      <point x="108.652" y="36" type="curve"/>
      <point x="74.4039" y="69.3333"/>
      <point x="64.2942" y="119"/>
      <point x="78.323" y="185" type="curve" smooth="yes"/>
      <point x="187.364" y="698" type="line"/>
      <point x="297.364" y="698" type="line"/>
      <point x="192.362" y="204" type="line" smooth="yes"/>
      <point x="184.568" y="167.333"/>
      <point x="189.425" y="140"/>
      <point x="206.932" y="122" type="curve" smooth="yes"/>
      <point x="219.289" y="108"/>
      <point x="240.468" y="101"/>
      <point x="270.468" y="101" type="curve" smooth="yes"/>
      <point x="299.802" y="101"/>
      <point x="324.977" y="109.667"/>
      <point x="345.995" y="127" type="curve" smooth="yes"/>
      <point x="368.346" y="144.333"/>
      <point x="385.701" y="172.667"/>
      <point x="392.787" y="206" type="curve" smooth="yes"/>
      <point x="497.364" y="698" type="line"/>
      <point x="607.364" y="698" type="line"/>
    </contour>
  </outline>
</glyph>
<glyph name="bracketleft" format="1">
  <advance width="232"/>
  <unicode hex="005B"/>
  <outline>
    <contour>
      <point x="301.002" y="701" type="line"/>
      <point x="152.213" y="1" type="line"/>
      <point x="201.087" y="-9" type="line"/>
      <point x="178.769" y="-114" type="line"/>
      <point x="17.7685" y="-114" type="line"/>
      <point x="215.446" y="816" type="line"/>
      <point x="376.446" y="816" type="line"/>
      <point x="354.128" y="711" type="line"/>
    </contour>
  </outline>
</glyph>
<glyph name="a" format="1">
  <advance width="450"/>
  <unicode hex="0061"/>
  <outline>
    <contour>
      <point x="374.994" y="334" type="curve"/>
      <point x="384.063" y="376.667"/>
      <point x="381.031" y="395.333"/>
      <point x="371.298" y="406" type="curve" smooth="yes"/>
      <point x="357.366" y="422"/>
      <point x="331.704" y="433"/>
      <point x="289.037" y="433" type="curve"/>
      <point x="313.979" y="508" type="line"/>
      <point x="365.671" y="508"/>
      <point x="428.853" y="505.438"/>
      <point x="465.626" y="464" type="curve" smooth="yes"/>
      <point x="485.092" y="442.667"/>
      <point x="498.562" y="398.094"/>
      <point x="479.042" y="306" type="curve" smooth="yes"/>
      <point x="414" y="0" type="line"/>
      <point x="357.342" y="-7.85553"/>
      <point x="298.379" y="-11"/>
      <point x="231.662" y="-11" type="curve" smooth="yes"/>
      <point x="118.378" y="-11"/>
      <point x="34.6906" y="28.8564"/>
      <point x="61.9463" y="155" type="curve" smooth="yes"/>
      <point x="82.5642" y="252" type="line" smooth="yes"/>
      <point x="104.828" y="352.824"/>
      <point x="176.213" y="400"/>
      <point x="249.023" y="400" type="curve" smooth="yes"/>
      <point x="295.964" y="400"/>
      <point x="353.432" y="378.512"/>
    </contour>
    <contour>
      <point x="357.564" y="252" type="line"/>
      <point x="347.608" y="259.734"/>
      <point x="302.085" y="287"/>
      <point x="256.004" y="287" type="curve" smooth="yes"/>
      <point x="226.046" y="287"/>
      <point x="199.177" y="275.962"/>
      <point x="190.588" y="238" type="curve" smooth="yes"/>
      <point x="176.772" y="173" type="line" smooth="yes"/>
      <point x="166.22" y="122.952"/>
      <point x="171.346" y="90"/>
      <point x="262.13" y="90" type="curve" smooth="yes"/>
      <point x="278.479" y="90"/>
      <point x="324.735" y="94.4445"/>
      <point x="323.98" y="94" type="curve"/>
    </contour>
  </outline>
</glyph>
<glyph name="c" format="1">
  <advance width="384"/>
  <unicode hex="0063"/>
  <outline>
    <contour>
      <point x="409.322" y="392" type="line"/>
      <point x="378.056" y="408"/>
      <point x="336.87" y="419.667"/>
      <point x="296.786" y="413" type="curve" smooth="yes"/>
      <point x="273.269" y="409"/>
      <point x="249.739" y="398.667"/>
      <point x="233.771" y="380" type="curve"/>
      <point x="224.271" y="366.667"/>
      <point x="214.607" y="351"/>
      <point x="210.356" y="331" type="curve" smooth="yes"/>
      <point x="176.985" y="174" type="line" smooth="yes"/>
      <point x="163.948" y="112.667"/>
      <point x="200.521" y="84"/>
      <point x="261.855" y="84" type="curve"/>
      <point x="304.468" y="83.7778"/>
      <point x="354.132" y="94.2222"/>
      <point x="352.98" y="94" type="curve"/>
      <point x="354.063" y="5" type="line"/>
      <point x="285.045" y="-12.3333"/>
      <point x="209.345" y="-20.3333"/>
      <point x="143.213" y="1" type="curve"/>
      <point x="80.0306" y="23.6667"/>
      <point x="47.0835" y="75.6667"/>
      <point x="67.7724" y="173" type="curve" smooth="yes"/>
      <point x="98.8056" y="319" type="line"/>
      <point x="110.825" y="363"/>
      <point x="124.293" y="395"/>
      <point x="149.762" y="427" type="curve" smooth="yes"/>
      <point x="185.781" y="471"/>
      <point x="229.024" y="495.667"/>
      <point x="276.341" y="505" type="curve" smooth="yes"/>
      <point x="339.175" y="518.333"/>
      <point x="400.724" y="503.667"/>
      <point x="452.39" y="477" type="curve"/>
    </contour>
  </outline>
</glyph>
<glyph name="d" format="1">
  <advance width="459"/>
  <unicode hex="0064"/>
  <outline>
    <contour>
      <point x="416" y="0" type="line"/>
      <point x="361.205" y="-7.96529"/>
      <point x="301.532" y="-11"/>
      <point x="236.661" y="-11" type="curve" smooth="yes"/>
      <point x="123.599" y="-11"/>
      <point x="42.8947" y="37.1597"/>
      <point x="63.953" y="155" type="curve"/>
      <point x="107.323" y="359" type="line" smooth="yes"/>
      <point x="129.016" y="461.033"/>
      <point x="214.767" y="508"/>
      <point x="288.001" y="508" type="curve" smooth="yes"/>
      <point x="334.667" y="508"/>
      <point x="369.775" y="500.667"/>
      <point x="408.473" y="482" type="curve"/>
      <point x="454.395" y="698" type="line"/>
      <point x="564.395" y="698" type="line"/>
    </contour>
    <contour>
      <point x="384.662" y="370" type="line"/>
      <point x="374.079" y="376.667"/>
      <point x="342.431" y="394"/>
      <point x="295.764" y="394" type="curve" smooth="yes"/>
      <point x="265.298" y="394"/>
      <point x="223.344" y="382.617"/>
      <point x="215.347" y="345" type="curve" smooth="yes"/>
      <point x="178.992" y="174" type="line" smooth="yes"/>
      <point x="168.193" y="123.203"/>
      <point x="175.347" y="91"/>
      <point x="265.347" y="91" type="curve" smooth="yes"/>
      <point x="281.347" y="91"/>
      <point x="326.405" y="93.8889"/>
      <point x="325.984" y="94" type="curve"/>
    </contour>
  </outline>
</glyph>
<glyph name="e" format="1">
  <advance width="425"/>
  <unicode hex="0065"/>
  <outline>
    <contour>
      <point x="175.458" y="148" type="line" smooth="yes"/>
      <point x="168" y="114"/>
      <point x="184" y="90"/>
      <point x="220.13" y="90" type="curve" smooth="yes"/>
      <point x="256.13" y="90"/>
      <point x="308.431" y="108.667"/>
      <point x="355.632" y="130" type="curve"/>
      <point x="375.439" y="35" type="line"/>
      <point x="322.538" y="5.66667"/>
      <point x="255.237" y="-13"/>
      <point x="195.237" y="-13" type="curve" smooth="yes"/>
      <point x="101" y="-13"/>
      <point x="40" y="33"/>
      <point x="61.4826" y="134" type="curve" smooth="yes"/>
      <point x="105.057" y="339" type="line" smooth="yes"/>
      <point x="128" y="448"/>
      <point x="213" y="509"/>
      <point x="321" y="509" type="curve" smooth="yes"/>
      <point x="428" y="509"/>
      <point x="489" y="452"/>
      <point x="465.694" y="342" type="curve" smooth="yes"/>
      <point x="432.536" y="186" type="line"/>
      <point x="180.772" y="173" type="line"/>
    </contour>
    <contour>
      <point x="348.318" y="312" type="line" smooth="yes"/>
      <point x="357" y="354"/>
      <point x="361" y="407"/>
      <point x="301.873" y="404" type="curve" smooth="yes"/>
      <point x="240" y="401"/>
      <point x="223" y="368"/>
      <point x="210.53" y="313" type="curve" smooth="yes"/>
      <point x="202.24" y="274" type="line"/>
      <point x="342.153" y="283" type="line"/>
    </contour>
  </outline>
</glyph>
<glyph name="f" format="1">
  <advance width="278"/>
  <unicode hex="0066"/>
  <outline>
    <contour>
      <point x="359.809" y="606" type="line"/>
      <point x="349.709" y="608.667"/>
      <point x="335.418" y="612"/>
      <point x="322.085" y="612" type="curve" smooth="yes"/>
      <point x="296.531" y="612"/>
      <point x="279.263" y="594.019"/>
      <point x="271.607" y="558" type="curve" smooth="yes"/>
      <point x="259.066" y="499" type="line"/>
      <point x="346.066" y="499" type="line"/>
      <point x="300.172" y="396" type="line"/>
      <point x="237.172" y="396" type="line"/>
      <point x="153" y="0" type="line"/>
      <point x="40" y="0" type="line"/>
      <point x="156.481" y="548" type="line" smooth="yes"/>
      <point x="180.229" y="659.727"/>
      <point x="258.117" y="711"/>
      <point x="338.128" y="711" type="curve" smooth="yes"/>
      <point x="356.794" y="711"/>
      <point x="380.965" y="708.667"/>
      <point x="399.065" y="706" type="curve"/>
    </contour>
  </outline>
</glyph>
<glyph name="j" format="1">
  <advance width="258"/>
  <unicode hex="006A"/>
  <outline>
    <contour>
      <point x="198.034" y="-61" type="line" smooth="yes"/>
      <point x="186.414" y="-115.667"/>
      <point x="160.379" y="-150.333"/>
      <point x="125.377" y="-177" type="curve" smooth="yes"/>
      <point x="91.9927" y="-202.333"/>
      <point x="42.6337" y="-215"/>
      <point x="13.3003" y="-215" type="curve"/>
      <point x="2.43042" y="-125" type="line"/>
      <point x="26.2307" y="-119.667"/>
      <point x="42.1518" y="-115.333"/>
      <point x="58.3192" y="-102" type="curve" smooth="yes"/>
      <point x="72.5865" y="-91.3333"/>
      <point x="85.2708" y="-74"/>
      <point x="90.3722" y="-50" type="curve" smooth="yes"/>
      <point x="186.023" y="400" type="line"/>
      <point x="115.148" y="410" type="line"/>
      <point x="134.066" y="499" type="line"/>
      <point x="317.066" y="499" type="line"/>
    </contour>
    <contour>
      <point x="354.949" y="649" type="curve" smooth="yes"/>
      <point x="348.147" y="617"/>
      <point x="315.742" y="590"/>
      <point x="282.408" y="590" type="curve" smooth="yes"/>
      <point x="249.075" y="590"/>
      <point x="228.147" y="617"/>
      <point x="234.949" y="649" type="curve" smooth="yes"/>
      <point x="242.034" y="682.333"/>
      <point x="274.157" y="708"/>
      <point x="307.49" y="708" type="curve" smooth="yes"/>
      <point x="340.823" y="708"/>
      <point x="362.034" y="682.333"/>
    </contour>
  </outline>
</glyph>
<glyph name="m" format="1">
  <advance width="719"/>
  <unicode hex="006D"/>
  <outline>
    <contour>
      <point x="644.482" y="341" type="line" smooth="yes"/>
      <point x="652.939" y="380.79"/>
      <point x="623.273" y="408"/>
      <point x="580.723" y="408" type="curve" smooth="yes"/>
      <point x="563.39" y="408"/>
      <point x="527.689" y="400"/>
      <point x="493.622" y="384" type="curve"/>
      <point x="493.738" y="372"/>
      <point x="491.237" y="358.667"/>
      <point x="488.12" y="344" type="curve" smooth="yes"/>
      <point x="415" y="0" type="line"/>
      <point x="305" y="0" type="line"/>
      <point x="377.482" y="341" type="line" smooth="yes"/>
      <point x="385.938" y="380.784"/>
      <point x="358.291" y="408"/>
      <point x="315.723" y="408" type="curve" smooth="yes"/>
      <point x="293.056" y="408"/>
      <point x="264.689" y="400"/>
      <point x="230.622" y="384" type="curve"/>
      <point x="149" y="0" type="line"/>
      <point x="39" y="0" type="line"/>
      <point x="145.066" y="499" type="line"/>
      <point x="255.066" y="499" type="line"/>
      <point x="249.964" y="475" type="line"/>
      <point x="280.528" y="492.847"/>
      <point x="320.279" y="507"/>
      <point x="355.766" y="507" type="curve" smooth="yes"/>
      <point x="402.433" y="507"/>
      <point x="448.882" y="495"/>
      <point x="474.563" y="459" type="curve"/>
      <point x="511.945" y="481.423"/>
      <point x="577.672" y="507"/>
      <point x="621.766" y="507" type="curve" smooth="yes"/>
      <point x="700.574" y="507"/>
      <point x="782.339" y="472.057"/>
      <point x="755.119" y="344" type="curve" smooth="yes"/>
      <point x="682" y="0" type="line"/>
      <point x="572" y="0" type="line"/>
    </contour>
  </outline>
</glyph>
<glyph name="n" format="1">
  <advance width="445"/>
  <unicode hex="006E"/>
  <outline>
    <contour>
      <point x="371.709" y="342" type="line" smooth="yes"/>
      <point x="379.675" y="379.467"/>
      <point x="356.887" y="409"/>
      <point x="314.953" y="409" type="curve" smooth="yes"/>
      <point x="292.287" y="409"/>
      <point x="265.536" y="402.333"/>
      <point x="229.851" y="385" type="curve"/>
      <point x="147.787" y="-1" type="line"/>
      <point x="38.7874" y="-1" type="line"/>
      <point x="145.087" y="499" type="line"/>
      <point x="254.087" y="499" type="line"/>
      <point x="249.198" y="476" type="line"/>
      <point x="268.799" y="486.667"/>
      <point x="314.667" y="508"/>
      <point x="356.001" y="508" type="curve" smooth="yes"/>
      <point x="435.793" y="508"/>
      <point x="508.565" y="473.026"/>
      <point x="481.347" y="345" type="curve" smooth="yes"/>
      <point x="407.787" y="-1" type="line"/>
      <point x="298.787" y="-1" type="line"/>
    </contour>
  </outline>
</glyph>
<glyph name="o" format="1">
  <advance width="432"/>
  <unicode hex="006F"/>
  <outline>
    <contour>
      <point x="439.11" y="184" type="line" smooth="yes"/>
      <point x="414.505" y="68.2391"/>
      <point x="338.184" y="-10"/>
      <point x="215.874" y="-10" type="curve" smooth="yes"/>
      <point x="84.3422" y="-10"/>
      <point x="48.6627" y="83.0965"/>
      <point x="70.1104" y="184" type="curve" smooth="yes"/>
      <point x="98.1679" y="316" type="line" smooth="yes"/>
      <point x="125.092" y="442.667"/>
      <point x="205.071" y="510"/>
      <point x="326.404" y="510" type="curve" smooth="yes"/>
      <point x="442.404" y="510"/>
      <point x="492.958" y="437.333"/>
      <point x="467.168" y="316" type="curve" smooth="yes"/>
    </contour>
    <contour>
      <point x="355.443" y="322" type="line" smooth="yes"/>
      <point x="365.646" y="370"/>
      <point x="348.689" y="400"/>
      <point x="302.023" y="400" type="curve" smooth="yes"/>
      <point x="254.023" y="400"/>
      <point x="221.213" y="372.667"/>
      <point x="210.443" y="322" type="curve" smooth="yes"/>
      <point x="179.41" y="176" type="line" smooth="yes"/>
      <point x="170.839" y="135.675"/>
      <point x="184.608" y="98"/>
      <point x="237.831" y="98" type="curve" smooth="yes"/>
      <point x="288.02" y="98"/>
      <point x="314.889" y="131.207"/>
      <point x="324.41" y="176" type="curve" smooth="yes"/>
    </contour>
  </outline>
</glyph>
<glyph name="p" format="1">
  <advance width="443"/>
  <unicode hex="0070"/>
  <outline>
    <contour>
      <point x="446.41" y="176" type="line" smooth="yes"/>
      <point x="420.336" y="53.3333"/>
      <point x="348.116" y="-12"/>
      <point x="237.449" y="-12" type="curve" smooth="yes"/>
      <point x="204.682" y="-12"/>
      <point x="173.405" y="-1.8866"/>
      <point x="152.551" y="12" type="curve"/>
      <point x="104" y="-215" type="line"/>
      <point x="-1.1878" y="-190.797" type="line"/>
      <point x="146.066" y="499" type="line"/>
      <point x="256.066" y="499" type="line"/>
      <point x="251.389" y="477" type="line"/>
      <point x="266.715" y="489.639"/>
      <point x="322.142" y="509"/>
      <point x="360.191" y="509" type="curve" smooth="yes"/>
      <point x="461.525" y="509"/>
      <point x="503.871" y="446.333"/>
      <point x="482.332" y="345" type="curve" smooth="yes"/>
    </contour>
    <contour>
      <point x="370.632" y="337" type="line" smooth="yes"/>
      <point x="382.61" y="393.352"/>
      <point x="350.533" y="410"/>
      <point x="313.148" y="410" type="curve"/>
      <point x="280.527" y="411"/>
      <point x="230.918" y="385"/>
      <point x="232.047" y="386" type="curve"/>
      <point x="179.545" y="139" type="line" smooth="yes"/>
      <point x="171.719" y="102.178"/>
      <point x="221.79" y="88"/>
      <point x="253.705" y="88" type="curve" smooth="yes"/>
      <point x="295.038" y="88"/>
      <point x="323.727" y="116.333"/>
      <point x="332.796" y="159" type="curve" smooth="yes"/>
    </contour>
  </outline>
</glyph>
<glyph name="q" format="1">
  <advance width="442"/>
  <unicode hex="0071"/>
  <outline>
    <contour>
      <point x="294.763" y="13" type="line"/>
      <point x="267.623" y="-1.0856"/>
      <point x="231.241" y="-11"/>
      <point x="199.662" y="-11" type="curve" smooth="yes"/>
      <point x="88.9952" y="-11"/>
      <point x="43.6198" y="54.6667"/>
      <point x="69.41" y="176" type="curve" smooth="yes"/>
      <point x="105.332" y="345" type="line" smooth="yes"/>
      <point x="127.154" y="447.667"/>
      <point x="196.404" y="510"/>
      <point x="300.404" y="510" type="curve" smooth="yes"/>
      <point x="335.082" y="510"/>
      <point x="368.625" y="498.514"/>
      <point x="393.389" y="477" type="curve"/>
      <point x="398.066" y="499" type="line"/>
      <point x="508.066" y="499" type="line"/>
      <point x="357" y="-215" type="line"/>
      <point x="252.138" y="-189.533" type="line"/>
    </contour>
    <contour>
      <point x="374.259" y="387" type="line"/>
      <point x="374.63" y="386"/>
      <point x="337.24" y="412"/>
      <point x="302.361" y="411" type="curve"/>
      <point x="267.173" y="411"/>
      <point x="225.809" y="394.29"/>
      <point x="213.844" y="338" type="curve" smooth="yes"/>
      <point x="176.222" y="161" type="line" smooth="yes"/>
      <point x="168.003" y="122.333"/>
      <point x="180.584" y="89"/>
      <point x="229.918" y="89" type="curve"/>
      <point x="285.565" y="91.6233"/>
      <point x="316.854" y="116.927"/>
      <point x="321.758" y="140" type="curve" smooth="yes"/>
    </contour>
  </outline>
</glyph>
<glyph name="r" format="1">
  <advance width="373"/>
  <unicode hex="0072"/>
  <outline>
    <contour>
      <point x="417.953" y="409" type="line"/>
      <point x="417.953" y="409"/>
      <point x="403.442" y="416"/>
      <point x="367.442" y="416" type="curve" smooth="yes"/>
      <point x="323.588" y="416"/>
      <point x="277.241" y="407.784"/>
      <point x="231.489" y="388" type="curve"/>
      <point x="149" y="0" type="line"/>
      <point x="39" y="0" type="line"/>
      <point x="145.087" y="499" type="line"/>
      <point x="255.087" y="499" type="line"/>
      <point x="250.835" y="479" type="line"/>
      <point x="288.988" y="501.667"/>
      <point x="334.61" y="514"/>
      <point x="377.276" y="514" type="curve" smooth="yes"/>
      <point x="407.943" y="514"/>
      <point x="433.455" y="507"/>
      <point x="453.087" y="499" type="curve"/>
    </contour>
  </outline>
</glyph>
<glyph name="s" format="1">
  <advance width="426"/>
  <unicode hex="0073"/>
  <outline>
    <contour>
      <point x="395.851" y="385" type="line"/>
      <point x="376.293" y="397.067"/>
      <point x="346.501" y="405"/>
      <point x="313.103" y="405" type="curve" smooth="yes"/>
      <point x="290.103" y="405"/>
      <point x="249.253" y="401"/>
      <point x="242.662" y="370" type="curve" smooth="yes"/>
      <point x="239.544" y="355.333"/>
      <point x="254.972" y="341.667"/>
      <point x="275.371" y="331" type="curve" smooth="yes"/>
      <point x="289.67" y="323"/>
      <point x="306.444" y="315.667"/>
      <point x="323.693" y="309" type="curve" smooth="yes"/>
      <point x="391.166" y="283"/>
      <point x="445.685" y="229"/>
      <point x="427.827" y="145" type="curve" smooth="yes"/>
      <point x="416.488" y="91.6667"/>
      <point x="383.504" y="49.4872"/>
      <point x="339.465" y="21" type="curve" smooth="yes"/>
      <point x="303.091" y="-2.5287"/>
      <point x="257.478" y="-15"/>
      <point x="210.811" y="-15" type="curve" smooth="yes"/>
      <point x="170.811" y="-15"/>
      <point x="137.533" y="-5.33333"/>
      <point x="113.701" y="8" type="curve" smooth="yes"/>
      <point x="76.6195" y="28"/>
      <point x="53.1471" y="54"/>
      <point x="41.882" y="70" type="curve"/>
      <point x="120.126" y="137" type="line"/>
      <point x="146.173" y="109"/>
      <point x="182.709" y="88"/>
      <point x="225.709" y="88" type="curve" smooth="yes"/>
      <point x="256.709" y="88"/>
      <point x="300.685" y="102"/>
      <point x="309.551" y="139" type="curve" smooth="yes"/>
      <point x="314.263" y="157.652"/>
      <point x="306.305" y="172.333"/>
      <point x="297.906" y="183" type="curve" smooth="yes"/>
      <point x="286.357" y="197.667"/>
      <point x="266.725" y="205.667"/>
      <point x="248.709" y="215" type="curve" smooth="yes"/>
      <point x="225.643" y="225.667"/>
      <point x="196.921" y="235.784"/>
      <point x="172" y="254" type="curve" smooth="yes"/>
      <point x="140.355" y="277.132"/>
      <point x="117.473" y="312.667"/>
      <point x="129.662" y="370" type="curve" smooth="yes"/>
      <point x="140.717" y="422"/>
      <point x="175.796" y="460"/>
      <point x="220.898" y="484" type="curve" smooth="yes"/>
      <point x="256.867" y="502.667"/>
      <point x="297.851" y="512"/>
      <point x="337.851" y="512" type="curve" smooth="yes"/>
      <point x="378.824" y="512"/>
      <point x="420.151" y="500.123"/>
      <point x="449.198" y="476" type="curve"/>
    </contour>
  </outline>
</glyph>
<glyph name="braceleft" format="1">
  <advance width="291"/>
  <unicode hex="007B"/>
  <outline>
    <contour>
      <point x="324.679" y="516" type="line" smooth="yes"/>
      <point x="318.586" y="487.333"/>
      <point x="309.301" y="459.333"/>
      <point x="296.824" y="432" type="curve" smooth="yes"/>
      <point x="284.348" y="404.667"/>
      <point x="260.013" y="378"/>
      <point x="223.82" y="352" type="curve"/>
      <point x="249.102" y="326.667"/>
      <point x="262.171" y="300.333"/>
      <point x="263.028" y="273" type="curve" smooth="yes"/>
      <point x="263.885" y="245.667"/>
      <point x="261.267" y="217.667"/>
      <point x="255.173" y="189" type="curve" smooth="yes"/>
      <point x="231.154" y="76" type="line" smooth="yes"/>
      <point x="215.152" y="0.712585"/>
      <point x="235.836" y="-20.1808"/>
      <point x="257.773" y="-34" type="curve"/>
      <point x="190.131" y="-117" type="line"/>
      <point x="184.414" y="-117"/>
      <point x="88.0364" y="-84.5129"/>
      <point x="122.154" y="76" type="curve" smooth="yes"/>
      <point x="146.173" y="189" type="line" smooth="yes"/>
      <point x="152.125" y="217"/>
      <point x="153.995" y="243.833"/>
      <point x="151.784" y="269.5" type="curve" smooth="yes"/>
      <point x="149.573" y="295.167"/>
      <point x="135.423" y="320.333"/>
      <point x="109.332" y="345" type="curve" smooth="yes"/>
      <point x="100.82" y="352" type="line"/>
      <point x="112.521" y="360" type="line" smooth="yes"/>
      <point x="149.097" y="384.667"/>
      <point x="173.911" y="409.667"/>
      <point x="186.962" y="435" type="curve" smooth="yes"/>
      <point x="200.014" y="460.333"/>
      <point x="209.586" y="487.333"/>
      <point x="215.679" y="516" type="curve" smooth="yes"/>
      <point x="239.698" y="629" type="line" smooth="yes"/>
      <point x="273.777" y="789.325"/>
      <point x="385.446" y="821"/>
      <point x="389.509" y="821" type="curve"/>
      <point x="422.08" y="739" type="line"/>
      <point x="394.328" y="725.211"/>
      <point x="364.655" y="704.071"/>
      <point x="348.698" y="629" type="curve" smooth="yes"/>
    </contour>
  </outline>
</glyph>
<glyph name="asciitilde" format="1">
  <advance width="266"/>
  <unicode hex="007E"/>
  <outline>
    <contour>
      <point x="354.554" y="299" type="line"/>
      <point x="324.403" y="276.333"/>
      <point x="288.414" y="256"/>
      <point x="248.414" y="256" type="curve"/>
      <point x="205.656" y="258.057"/>
      <point x="176.247" y="286"/>
      <point x="134.791" y="286" type="curve" smooth="yes"/>
      <point x="114.791" y="286"/>
      <point x="91.3033" y="279"/>
      <point x="63.9024" y="263" type="curve"/>
      <point x="42.8055" y="319" type="line"/>
      <point x="74.2902" y="341.667"/>
      <point x="109.187" y="360"/>
      <point x="146.52" y="360" type="curve" smooth="yes"/>
      <point x="193.024" y="360"/>
      <point x="222.762" y="331"/>
      <point x="265.356" y="331" type="curve" smooth="yes"/>
      <point x="284.023" y="331"/>
      <point x="305.773" y="337.667"/>
      <point x="333.458" y="355" type="curve"/>
    </contour>
  </outline>
</glyph>
<glyph name="exclamdown" format="1">
  <advance width="194"/>
  <unicode hex="00A1"/>
  <outline>
    <contour>
      <point x="169.454" y="68" type="line"/>
      <point x="159.818" y="22.6667"/>
      <point x="135" y="0"/>
      <point x="95" y="0" type="curve" smooth="yes"/>
      <point x="57.6667" y="0"/>
      <point x="44.0305" y="23.6667"/>
      <point x="53.6664" y="69" type="curve"/>
      <point x="181.983" y="588" type="line"/>
      <point x="257.983" y="588" type="line"/>
    </contour>
    <contour>
      <point x="297.138" y="664" type="curve" smooth="yes"/>
      <point x="290.052" y="630.667"/>
      <point x="258.93" y="605"/>
      <point x="225.597" y="605" type="curve" smooth="yes"/>
      <point x="193.597" y="605"/>
      <point x="172.052" y="630.667"/>
      <point x="179.138" y="664" type="curve" smooth="yes"/>
      <point x="186.223" y="697.333"/>
      <point x="218.891" y="724"/>
      <point x="250.891" y="724" type="curve" smooth="yes"/>
      <point x="284.224" y="724"/>
      <point x="304.223" y="697.333"/>
    </contour>
  </outline>
</glyph>
<glyph name="dieresis" format="1">
  <advance width="266"/>
  <unicode hex="00A8"/>
  <outline>
    <contour>
      <point x="217.031" y="767" type="curve" smooth="yes"/>
      <point x="250.364" y="767"/>
      <point x="270.292" y="740"/>
      <point x="263.49" y="708" type="curve" smooth="yes"/>
      <point x="256.405" y="674.667"/>
      <point x="225.07" y="648"/>
      <point x="191.737" y="648" type="curve" smooth="yes"/>
      <point x="158.403" y="648"/>
      <point x="137.405" y="674.667"/>
      <point x="144.49" y="708" type="curve" smooth="yes"/>
      <point x="151.292" y="740"/>
      <point x="183.698" y="767"/>
    </contour>
    <contour>
      <point x="375.031" y="767" type="curve" smooth="yes"/>
      <point x="408.364" y="767"/>
      <point x="429.292" y="740"/>
      <point x="422.49" y="708" type="curve" smooth="yes"/>
      <point x="415.405" y="674.667"/>
      <point x="383.07" y="648"/>
      <point x="349.737" y="648" type="curve" smooth="yes"/>
      <point x="316.403" y="648"/>
      <point x="295.405" y="674.667"/>
      <point x="302.49" y="708" type="curve" smooth="yes"/>
      <point x="309.292" y="740"/>
      <point x="341.698" y="767"/>
    </contour>
  </outline>
</glyph>
<glyph name="ordfeminine" format="1">
  <advance width="329"/>
  <unicode hex="00AA"/>
  <outline>
    <contour>
      <point x="378.11" y="391" type="curve"/>
      <point x="332.693" y="384.333"/>
      <point x="289.013" y="378"/>
      <point x="254.346" y="378" type="curve" smooth="yes"/>
      <point x="166.687" y="378"/>
      <point x="112.211" y="405.593"/>
      <point x="136.104" y="518" type="curve"/>
      <point x="151.275" y="580.226"/>
      <point x="198.065" y="631"/>
      <point x="265.123" y="631" type="curve" smooth="yes"/>
      <point x="289.123" y="631"/>
      <point x="314.231" y="623.667"/>
      <point x="336.447" y="609" type="curve"/>
      <point x="344.013" y="644.593"/>
      <point x="335.841" y="650"/>
      <point x="299.162" y="650" type="curve" smooth="yes"/>
      <point x="288.495" y="650"/>
      <point x="274.424" y="649.667"/>
      <point x="256.524" y="647" type="curve"/>
      <point x="279.49" y="708" type="line"/>
      <point x="316.197" y="713.272"/>
      <point x="368.54" y="714.458"/>
      <point x="397.026" y="687" type="curve" smooth="yes"/>
      <point x="424.975" y="661.667"/>
      <point x="426.077" y="616.667"/>
      <point x="412.756" y="554" type="curve"/>
      <point x="413.259" y="556.365"/>
      <point x="377.266" y="387.032"/>
    </contour>
    <contour>
      <point x="320.293" y="533" type="line"/>
      <point x="306.56" y="543.667"/>
      <point x="285.302" y="555"/>
      <point x="263.969" y="555" type="curve" smooth="yes"/>
      <point x="238.437" y="555"/>
      <point x="222.328" y="533.169"/>
      <point x="216.766" y="507" type="curve" smooth="yes"/>
      <point x="209.777" y="468.235"/>
      <point x="234.409" y="458"/>
      <point x="268.351" y="458" type="curve" smooth="yes"/>
      <point x="283.499" y="458"/>
      <point x="293.863" y="460"/>
      <point x="304.776" y="460" type="curve"/>
    </contour>
  </outline>
</glyph>
<glyph name="mu" format="1">
  <advance width="463"/>
  <unicode hex="00B5"/>
  <outline>
    <contour>
      <point x="431.811" y="112" type="line"/>
      <point x="417.568" y="47.75"/>
      <point x="437.755" y="25.5"/>
      <point x="436.315" y="25" type="curve"/>
      <point x="335.787" y="-1" type="line"/>
      <point x="325.166" y="3.91667"/>
      <point x="315.053" y="25.3333"/>
      <point x="315.315" y="25" type="curve"/>
      <point x="306" y="7.73333"/>
      <point x="275.969" y="-9"/>
      <point x="240" y="-9" type="curve" smooth="yes"/>
      <point x="215.979" y="-9"/>
      <point x="178" y="-2"/>
      <point x="155.165" y="29" type="curve"/>
      <point x="104" y="-215" type="line"/>
      <point x="-0.442914" y="-189.533" type="line"/>
      <point x="146.087" y="499" type="line"/>
      <point x="255.087" y="499" type="line"/>
      <point x="180.795" y="149.5" type="line" smooth="yes"/>
      <point x="171.283" y="104.752"/>
      <point x="215.745" y="88.8715"/>
      <point x="242" y="90" type="curve" smooth="yes"/>
      <point x="293.734" y="92.2237"/>
      <point x="322.654" y="120.667"/>
      <point x="330.591" y="158" type="curve" smooth="yes"/>
      <point x="402.45" y="496" type="line"/>
      <point x="516.213" y="509" type="line"/>
    </contour>
  </outline>
</glyph>
<glyph name="paragraph" format="1">
  <advance width="676"/>
  <unicode hex="00B6"/>
  <outline>
    <contour>
      <point x="288.449" y="195" type="line" smooth="yes"/>
      <point x="182.202" y="195"/>
      <point x="81.2637" y="236.472"/>
      <point x="127.076" y="452" type="curve" smooth="yes"/>
      <point x="168.854" y="648.553"/>
      <point x="291.77" y="700"/>
      <point x="395.79" y="700" type="curve" smooth="yes"/>
      <point x="781.79" y="700" type="line"/>
      <point x="633.213" y="1" type="line"/>
      <point x="523.213" y="1" type="line"/>
      <point x="648.833" y="590" type="line"/>
      <point x="590.259" y="590" type="line"/>
      <point x="464.213" y="1" type="line"/>
      <point x="354.213" y="1" type="line"/>
      <point x="395.449" y="195" type="line"/>
    </contour>
    <contour>
      <point x="413.408" y="590" type="line" smooth="yes"/>
      <point x="312.068" y="590"/>
      <point x="263.803" y="577.744"/>
      <point x="237.076" y="452" type="curve" smooth="yes"/>
      <point x="208.457" y="317.361"/>
      <point x="249.865" y="300"/>
      <point x="351.767" y="300" type="curve" smooth="yes"/>
      <point x="417.767" y="300" type="line"/>
      <point x="479.408" y="590" type="line"/>
    </contour>
  </outline>
</glyph>
<glyph name="Thorn" format="1">
  <advance width="467"/>
  <unicode hex="00DE"/>
  <outline>
    <contour>
      <point x="497" y="291" type="line" smooth="yes"/>
      <point x="478" y="194"/>
      <point x="429" y="142"/>
      <point x="354" y="119" type="curve" smooth="yes"/>
      <point x="298" y="102"/>
      <point x="233" y="104"/>
      <point x="176" y="114" type="curve"/>
      <point x="152" y="0" type="line"/>
      <point x="41" y="0" type="line"/>
      <point x="190" y="700" type="line"/>
      <point x="301" y="700" type="line"/>
      <point x="281" y="610" type="line"/>
      <point x="316" y="620"/>
      <point x="350" y="628"/>
      <point x="383" y="628" type="curve" smooth="yes"/>
      <point x="505" y="628"/>
      <point x="550" y="544"/>
      <point x="528" y="436" type="curve" smooth="yes"/>
    </contour>
    <contour>
      <point x="351" y="534" type="curve" smooth="yes"/>
      <point x="325" y="534"/>
      <point x="289" y="525"/>
      <point x="261" y="516" type="curve"/>
      <point x="196" y="207" type="line"/>
      <point x="231" y="199"/>
      <point x="280" y="198"/>
      <point x="318" y="209" type="curve" smooth="yes"/>
      <point x="361" y="221"/>
      <point x="380" y="249"/>
      <point x="389" y="291" type="curve" smooth="yes"/>
      <point x="421" y="450" type="line" smooth="yes"/>
      <point x="432" y="501"/>
      <point x="405" y="534"/>
    </contour>
  </outline>
</glyph>
<glyph name="germandbls" format="1">
  <advance width="515"/>
  <unicode hex="00DF"/>
  <outline>
    <contour>
      <point x="150" y="0" type="line"/>
      <point x="114" y="0"/>
      <point x="76" y="0"/>
      <point x="40" y="0" type="curve"/>
      <point x="153.93" y="536" type="line" smooth="yes"/>
      <point x="178.44" y="651.307"/>
      <point x="269" y="700"/>
      <point x="349.79" y="700" type="curve" smooth="yes"/>
      <point x="417" y="700"/>
      <point x="477" y="668"/>
      <point x="483.66" y="610" type="curve" smooth="yes"/>
      <point x="488" y="569"/>
      <point x="471.729" y="514.667"/>
      <point x="426.177" y="476" type="curve"/>
      <point x="426.26" y="476"/>
      <point x="406.844" y="476"/>
      <point x="406.177" y="476" type="curve"/>
      <point x="397.243" y="465.333"/>
      <point x="390.642" y="454.667"/>
      <point x="388.375" y="444" type="curve" smooth="yes"/>
      <point x="377.727" y="393.906"/>
      <point x="451.7" y="344.534"/>
      <point x="490.216" y="288" type="curve" smooth="yes"/>
      <point x="515.365" y="251.086"/>
      <point x="530.452" y="204.428"/>
      <point x="518.458" y="148" type="curve" smooth="yes"/>
      <point x="498.284" y="53.0891"/>
      <point x="406.981" y="-12"/>
      <point x="310.449" y="-12" type="curve" smooth="yes"/>
      <point x="256.133" y="-12"/>
      <point x="210.354" y="7.12715"/>
      <point x="178.865" y="37" type="curve"/>
      <point x="233" y="119" type="line"/>
      <point x="263" y="92"/>
      <point x="302.006" y="92"/>
      <point x="329" y="92" type="curve" smooth="yes"/>
      <point x="361.095" y="92"/>
      <point x="395.675" y="116.086"/>
      <point x="403.309" y="152" type="curve" smooth="yes"/>
      <point x="408.721" y="177.462"/>
      <point x="401.341" y="209.437"/>
      <point x="376.651" y="243" type="curve" smooth="yes"/>
      <point x="335.157" y="299.406"/>
      <point x="256.806" y="356.64"/>
      <point x="274.312" y="439" type="curve" smooth="yes"/>
      <point x="278.847" y="460.333"/>
      <point x="289.786" y="482"/>
      <point x="309.554" y="506" type="curve"/>
      <point x="342.887" y="506"/>
      <point x="366.151" y="532.333"/>
      <point x="370.969" y="555" type="curve" smooth="yes"/>
      <point x="375.583" y="576.708"/>
      <point x="366.502" y="595"/>
      <point x="336.471" y="595" type="curve" smooth="yes"/>
      <point x="296.471" y="595"/>
      <point x="270.094" y="565"/>
      <point x="257.341" y="505" type="curve" smooth="yes"/>
    </contour>
  </outline>
</glyph>
<glyph name="ae" format="1">
  <advance width="698"/>
  <unicode hex="00E6"/>
  <outline>
    <contour>
      <point x="449.883" y="150" type="line" smooth="yes"/>
      <point x="442.879" y="117.048"/>
      <point x="455.293" y="91"/>
      <point x="494.343" y="91" type="curve" smooth="yes"/>
      <point x="529.009" y="91"/>
      <point x="581.644" y="109.667"/>
      <point x="628.845" y="131" type="curve"/>
      <point x="648.652" y="36" type="line"/>
      <point x="597.084" y="6.66667"/>
      <point x="544.449" y="-12"/>
      <point x="484.449" y="-12" type="curve" smooth="yes"/>
      <point x="451.116" y="-12"/>
      <point x="415.596" y="-0.333333"/>
      <point x="403.763" y="13" type="curve"/>
      <point x="400.575" y="-2" type="line"/>
      <point x="347.654" y="-8.44394"/>
      <point x="292.071" y="-11"/>
      <point x="231.662" y="-11" type="curve" smooth="yes"/>
      <point x="118.806" y="-11"/>
      <point x="40.0021" y="28.0173"/>
      <point x="60.9463" y="155" type="curve"/>
      <point x="81.5643" y="252" type="line" smooth="yes"/>
      <point x="103.103" y="353.329"/>
      <point x="175.213" y="400"/>
      <point x="248.023" y="400" type="curve" smooth="yes"/>
      <point x="294.964" y="400"/>
      <point x="352.432" y="378.512"/>
      <point x="373.994" y="334" type="curve"/>
      <point x="389.887" y="408.773"/>
      <point x="365.682" y="430.998"/>
      <point x="288.037" y="433" type="curve"/>
      <point x="297.705" y="459.667"/>
      <point x="304.927" y="482.667"/>
      <point x="312.979" y="508" type="curve"/>
      <point x="363.291" y="508"/>
      <point x="423.717" y="504.628"/>
      <point x="459.689" y="469" type="curve"/>
      <point x="504.307" y="497"/>
      <point x="549.071" y="510"/>
      <point x="598.404" y="510" type="curve" smooth="yes"/>
      <point x="696.357" y="510"/>
      <point x="761.733" y="450.386"/>
      <point x="738.907" y="343" type="curve" smooth="yes"/>
      <point x="705.748" y="187" type="line"/>
      <point x="454.985" y="174" type="line"/>
    </contour>
    <contour>
      <point x="356.564" y="252" type="line"/>
      <point x="346.608" y="259.734"/>
      <point x="303.335" y="287"/>
      <point x="255.004" y="287" type="curve" smooth="yes"/>
      <point x="225.046" y="287"/>
      <point x="197.579" y="275.593"/>
      <point x="189.588" y="238" type="curve" smooth="yes"/>
      <point x="175.772" y="173" type="line" smooth="yes"/>
      <point x="165.225" y="123.378"/>
      <point x="171.484" y="90"/>
      <point x="262.13" y="90" type="curve" smooth="yes"/>
      <point x="277.597" y="90"/>
      <point x="323.519" y="94.4445"/>
      <point x="322.98" y="94" type="curve"/>
    </contour>
    <contour>
      <point x="624.656" y="323" type="line" smooth="yes"/>
      <point x="634.032" y="367.111"/>
      <point x="630.272" y="405"/>
      <point x="575.085" y="405" type="curve"/>
      <point x="525.79" y="402.293"/>
      <point x="498.782" y="380.051"/>
      <point x="487.293" y="326" type="curve" smooth="yes"/>
      <point x="476.453" y="275" type="line"/>
      <point x="616.366" y="284" type="line"/>
    </contour>
  </outline>
</glyph>
<glyph name="Hbar" format="1">
  <advance width="514"/>
  <unicode hex="0126"/>
  <outline>
    <component base="Eta"/>
    <contour>
      <point x="619.066" y="499" type="line"/>
      <point x="105.066" y="499" type="line"/>
      <point x="123.983" y="588" type="line"/>
      <point x="637.983" y="588" type="line"/>
    </contour>
  </outline>
</glyph>
<glyph name="hbar" format="1">
  <advance width="476"/>
  <unicode hex="0127"/>
  <outline>
    <contour>
      <point x="380.481" y="548" type="line"/>
      <point x="145.481" y="548" type="line"/>
      <point x="164.824" y="639" type="line"/>
      <point x="399.824" y="639" type="line"/>
    </contour>
    <contour>
      <point x="281.177" y="476" type="line"/>
      <point x="301.061" y="488"/>
      <point x="346.858" y="509"/>
      <point x="388.191" y="509" type="curve" smooth="yes"/>
      <point x="466.972" y="509"/>
      <point x="541.61" y="473.331"/>
      <point x="514.332" y="345" type="curve" smooth="yes"/>
      <point x="441" y="0" type="line"/>
      <point x="332" y="0" type="line"/>
      <point x="404.907" y="343" type="line" smooth="yes"/>
      <point x="413.027" y="381.2"/>
      <point x="389.565" y="409"/>
      <point x="346.936" y="409" type="curve" smooth="yes"/>
      <point x="324.269" y="409"/>
      <point x="297.448" y="402"/>
      <point x="262.047" y="386" type="curve"/>
      <point x="180" y="0" type="line"/>
      <point x="71" y="0" type="line"/>
      <point x="219.364" y="698" type="line"/>
      <point x="328.364" y="698" type="line"/>
    </contour>
  </outline>
</glyph>
<glyph name="ij" format="1">
  <advance width="451"/>
  <unicode hex="0133"/>
  <outline>
    <contour>
      <point x="249.49" y="708" type="curve" smooth="yes"/>
      <point x="282.823" y="708"/>
      <point x="304.247" y="683.333"/>
      <point x="297.162" y="650" type="curve" smooth="yes"/>
      <point x="290.077" y="616.667"/>
      <point x="257.742" y="590"/>
      <point x="224.408" y="590" type="curve" smooth="yes"/>
      <point x="191.075" y="590"/>
      <point x="171.077" y="616.667"/>
      <point x="178.162" y="650" type="curve" smooth="yes"/>
      <point x="185.247" y="683.333"/>
      <point x="216.157" y="708"/>
    </contour>
    <contour>
      <point x="557.949" y="649" type="curve" smooth="yes"/>
      <point x="551.147" y="617"/>
      <point x="517.742" y="590"/>
      <point x="484.408" y="590" type="curve" smooth="yes"/>
      <point x="451.075" y="590"/>
      <point x="431.147" y="617"/>
      <point x="437.949" y="649" type="curve" smooth="yes"/>
      <point x="445.034" y="682.333"/>
      <point x="476.157" y="708"/>
      <point x="509.49" y="708" type="curve" smooth="yes"/>
      <point x="542.823" y="708"/>
      <point x="565.034" y="682.333"/>
    </contour>
    <contour>
      <point x="409.491" y="501" type="line"/>
      <point x="519.491" y="501" type="line"/>
      <point x="400.459" y="-59" type="line" smooth="yes"/>
      <point x="381" y="-152"/>
      <point x="314" y="-213"/>
      <point x="216.725" y="-213" type="curve"/>
      <point x="206.643" y="-124" type="line"/>
      <point x="248" y="-124"/>
      <point x="285" y="-87"/>
      <point x="292.797" y="-48" type="curve" smooth="yes"/>
      <point x="308.952" y="28" type="line"/>
      <point x="292.501" y="13.3333"/>
      <point x="244.391" y="-6"/>
      <point x="201.725" y="-6" type="curve" smooth="yes"/>
      <point x="122.065" y="-6"/>
      <point x="49.2902" y="29.593"/>
      <point x="76.5839" y="158" type="curve" smooth="yes"/>
      <point x="149.491" y="501" type="line"/>
      <point x="260.491" y="501" type="line"/>
      <point x="188.222" y="161" type="line" smooth="yes"/>
      <point x="180.242" y="123.46"/>
      <point x="201.93" y="94"/>
      <point x="242.98" y="94" type="curve" smooth="yes"/>
      <point x="288.627" y="94"/>
      <point x="330.71" y="130.364"/>
      <point x="340.41" y="176" type="curve" smooth="yes"/>
    </contour>
  </outline>
</glyph>
<glyph name="Lslash" format="1">
  <advance width="516"/>
  <unicode hex="0141"/>
  <outline>
    <contour>
      <point x="129" y="0" type="line"/>
      <point x="194.68" y="309" type="line"/>
      <point x="115.878" y="277" type="line"/>
      <point x="97.3078" y="359" type="line"/>
      <point x="215.511" y="407" type="line"/>
      <point x="277.364" y="698" type="line"/>
      <point x="386.364" y="698" type="line"/>
      <point x="334.713" y="455" type="line"/>
      <point x="414.728" y="488" type="line"/>
      <point x="434.936" y="409" type="line"/>
      <point x="314.308" y="359" type="line"/>
      <point x="259.468" y="101" type="line"/>
      <point x="510.468" y="101" type="line"/>
      <point x="489" y="0" type="line"/>
    </contour>
  </outline>
</glyph>
<glyph name="OE" format="1">
  <advance width="715"/>
  <unicode hex="0152"/>
  <outline>
    <contour>
      <point x="346" y="0" type="line"/>
      <point x="351.952" y="28" type="line"/>
      <point x="333.891" y="-0.169439"/>
      <point x="277.194" y="-12"/>
      <point x="241.449" y="-12" type="curve" smooth="yes"/>
      <point x="122.555" y="-12"/>
      <point x="47.6901" y="54.9976"/>
      <point x="75.1104" y="184" type="curve" smooth="yes"/>
      <point x="143.341" y="505" type="line" smooth="yes"/>
      <point x="172.532" y="642.333"/>
      <point x="264.765" y="714"/>
      <point x="396.765" y="714" type="curve" smooth="yes"/>
      <point x="434.099" y="714"/>
      <point x="478.294" y="697.667"/>
      <point x="489.476" y="675" type="curve"/>
      <point x="494.364" y="698" type="line"/>
      <point x="828.364" y="698" type="line"/>
      <point x="804.983" y="588" type="line"/>
      <point x="580.983" y="588" type="line"/>
      <point x="543.786" y="413" type="line"/>
      <point x="680.786" y="413" type="line"/>
      <point x="626.467" y="308" type="line"/>
      <point x="521.467" y="308" type="line"/>
      <point x="477.256" y="100" type="line"/>
      <point x="699.256" y="100" type="line"/>
      <point x="678" y="0" type="line"/>
    </contour>
    <contour>
      <point x="189.362" y="204" type="line" smooth="yes"/>
      <point x="175.671" y="139.593"/>
      <point x="198.298" y="100"/>
      <point x="267.256" y="100" type="curve" smooth="yes"/>
      <point x="329.338" y="100"/>
      <point x="376.235" y="142.244"/>
      <point x="389.574" y="205" type="curve" smooth="yes"/>
      <point x="445.476" y="468" type="line" smooth="yes"/>
      <point x="463.615" y="553.333"/>
      <point x="449.804" y="595"/>
      <point x="372.471" y="595" type="curve" smooth="yes"/>
      <point x="299.138" y="595"/>
      <point x="264.111" y="555.667"/>
      <point x="245.689" y="469" type="curve" smooth="yes"/>
    </contour>
  </outline>
</glyph>
<glyph name="oe" format="1">
  <advance width="687"/>
  <unicode hex="0153"/>
  <outline>
    <contour>
      <point x="436.458" y="148" type="line" smooth="yes"/>
      <point x="429.019" y="112.999"/>
      <point x="443.276" y="90"/>
      <point x="484.13" y="90" type="curve" smooth="yes"/>
      <point x="518.797" y="90"/>
      <point x="571.764" y="108.667"/>
      <point x="617.632" y="130" type="curve"/>
      <point x="637.439" y="35" type="line"/>
      <point x="583.204" y="5.66667"/>
      <point x="515.903" y="-13"/>
      <point x="457.237" y="-13" type="curve" smooth="yes"/>
      <point x="405.171" y="-13"/>
      <point x="372.118" y="-7.65757"/>
      <point x="343.314" y="25" type="curve"/>
      <point x="308.879" y="1"/>
      <point x="266.116" y="-12"/>
      <point x="215.449" y="-12" type="curve" smooth="yes"/>
      <point x="84.7676" y="-12"/>
      <point x="48.4189" y="81.9496"/>
      <point x="69.6853" y="182" type="curve" smooth="yes"/>
      <point x="97.5302" y="313" type="line" smooth="yes"/>
      <point x="124.737" y="441"/>
      <point x="206.191" y="509"/>
      <point x="326.191" y="509" type="curve" smooth="yes"/>
      <point x="380.858" y="509"/>
      <point x="420.195" y="493.333"/>
      <point x="444.626" y="464" type="curve"/>
      <point x="484.325" y="496.74"/>
      <point x="536.485" y="509"/>
      <point x="587.191" y="509" type="curve" smooth="yes"/>
      <point x="692.322" y="509"/>
      <point x="750.871" y="451.037"/>
      <point x="727.694" y="342" type="curve" smooth="yes"/>
      <point x="694.536" y="186" type="line"/>
      <point x="441.772" y="173" type="line"/>
    </contour>
    <contour>
      <point x="357.018" y="320" type="line" smooth="yes"/>
      <point x="366.937" y="366.667"/>
      <point x="348.143" y="399"/>
      <point x="302.81" y="399" type="curve" smooth="yes"/>
      <point x="253.477" y="399"/>
      <point x="220.788" y="370.667"/>
      <point x="210.018" y="320" type="curve" smooth="yes"/>
      <point x="178.985" y="174" type="line" smooth="yes"/>
      <point x="170.431" y="133.757"/>
      <point x="184.953" y="96"/>
      <point x="238.405" y="96" type="curve" smooth="yes"/>
      <point x="287.915" y="96"/>
      <point x="316.458" y="129.181"/>
      <point x="325.985" y="174" type="curve" smooth="yes"/>
    </contour>
    <contour>
      <point x="610.318" y="312" type="line" smooth="yes"/>
      <point x="619.836" y="356.782"/>
      <point x="623.051" y="404"/>
      <point x="563.873" y="404" type="curve" smooth="yes"/>
      <point x="503.858" y="404"/>
      <point x="483.258" y="368.177"/>
      <point x="471.53" y="313" type="curve" smooth="yes"/>
      <point x="463.24" y="274" type="line"/>
      <point x="604.154" y="283" type="line"/>
    </contour>
  </outline>
</glyph>
<glyph name="tbar" format="1">
  <advance width="317"/>
  <unicode hex="0167"/>
  <outline>
    <contour>
      <point x="313.951" y="235" type="line"/>
      <point x="78.9508" y="235" type="line"/>
      <point x="98.2935" y="326" type="line"/>
      <point x="333.293" y="326" type="line"/>
    </contour>
    <contour>
      <point x="220.057" y="132" type="line" smooth="yes"/>
      <point x="210.422" y="86.6667"/>
      <point x="234.275" y="75"/>
      <point x="280.942" y="75" type="curve"/>
      <point x="229.237" y="-13" type="line"/>
      <point x="128.47" y="-10.3333"/>
      <point x="87.9354" y="37.3334"/>
      <point x="108.057" y="132" type="curve" smooth="yes"/>
      <point x="228.364" y="698" type="line"/>
      <point x="340.364" y="698" type="line"/>
      <point x="298.066" y="499" type="line"/>
      <point x="393.066" y="499" type="line"/>
      <point x="348.598" y="398" type="line"/>
      <point x="276.598" y="398" type="line"/>
    </contour>
  </outline>
</glyph>
<glyph name="ring" format="1">
  <advance width="266"/>
  <unicode hex="02DA"/>
  <outline>
    <contour>
      <point x="297.519" y="774" type="curve" smooth="yes"/>
      <point x="360.511" y="774"/>
      <point x="401.028" y="724.645"/>
      <point x="387.5" y="661" type="curve" smooth="yes"/>
      <point x="374.317" y="598.982"/>
      <point x="312.137" y="547"/>
      <point x="249.268" y="547" type="curve" smooth="yes"/>
      <point x="187.153" y="547"/>
      <point x="146.297" y="598.888"/>
      <point x="159.5" y="661" type="curve" smooth="yes"/>
      <point x="173.008" y="724.551"/>
      <point x="235.527" y="774"/>
    </contour>
    <contour>
      <point x="280.089" y="692" type="curve" smooth="yes"/>
      <point x="272.44" y="692"/>
      <point x="264.355" y="688.876"/>
      <point x="257.597" y="683.721" type="curve" smooth="yes"/>
      <point x="250.219" y="678.094"/>
      <point x="244.423" y="670.046"/>
      <point x="242.5" y="661" type="curve" smooth="yes"/>
      <point x="240.468" y="651.439"/>
      <point x="242.668" y="643.278"/>
      <point x="247.447" y="637.59" type="curve" smooth="yes"/>
      <point x="252" y="632.173"/>
      <point x="258.893" y="629"/>
      <point x="266.698" y="629" type="curve" smooth="yes"/>
      <point x="275.415" y="629"/>
      <point x="283.921" y="632.372"/>
      <point x="290.728" y="638.098" type="curve" smooth="yes"/>
      <point x="297.458" y="643.759"/>
      <point x="302.527" y="651.721"/>
      <point x="304.5" y="661" type="curve" smooth="yes"/>
      <point x="306.139" y="668.711"/>
      <point x="304.919" y="675.697"/>
      <point x="301.533" y="681.076" type="curve" smooth="yes"/>
      <point x="297.308" y="687.788"/>
      <point x="289.711" y="692"/>
    </contour>
  </outline>
</glyph>
<glyph name="hungarumlaut" format="1">
  <advance width="266"/>
  <unicode hex="02DD"/>
  <outline>
    <contour>
      <point x="294.099" y="645" type="curve" smooth="yes"/>
      <point x="219.945" y="569" type="line"/>
      <point x="175.945" y="569" type="line"/>
      <point x="230.601" y="685" type="line" smooth="yes"/>
      <point x="241.421" y="707.743"/>
      <point x="277.747" y="732.137"/>
      <point x="302.19" y="716" type="curve" smooth="yes"/>
      <point x="326.023" y="702.667"/>
      <point x="317.19" y="668.817"/>
    </contour>
    <contour>
      <point x="407.099" y="645" type="curve" smooth="yes"/>
      <point x="331.945" y="569" type="line"/>
      <point x="287.945" y="569" type="line"/>
      <point x="342.601" y="685" type="line" smooth="yes"/>
      <point x="354.936" y="711.667"/>
      <point x="389.308" y="730.667"/>
      <point x="414.19" y="716" type="curve" smooth="yes"/>
      <point x="438.023" y="702.667"/>
      <point x="430.584" y="667.667"/>
    </contour>
  </outline>
</glyph>
<glyph name="uni0302" format="1">
  <advance width="266"/>
  <unicode hex="0302"/>
  <outline>
    <contour>
      <point x="399" y="643" type="line"/>
      <point x="335" y="592" type="line"/>
      <point x="278" y="673" type="line"/>
      <point x="180" y="591" type="line"/>
      <point x="139" y="642" type="line"/>
      <point x="298" y="770" type="line"/>
    </contour>
  </outline>
</glyph>
<glyph name="tonos" format="1">
  <advance width="266"/>
  <unicode hex="0384"/>
  <outline>
    <contour>
      <point x="319.625" y="671" type="curve" smooth="yes"/>
      <point x="245.684" y="596" type="line"/>
      <point x="201.684" y="596" type="line"/>
      <point x="256.34" y="712" type="line" smooth="yes"/>
      <point x="267.224" y="735.529"/>
      <point x="302.281" y="757.747"/>
      <point x="327.504" y="741" type="curve" smooth="yes"/>
      <point x="349.293" y="726.534"/>
      <point x="343.11" y="693.667"/>
    </contour>
  </outline>
</glyph>
<glyph name="Deltagreek" format="1">
  <advance width="549"/>
  <unicode hex="0394"/>
  <outline>
    <contour>
      <point x="528" y="0" type="line"/>
      <point x="23" y="0" type="line"/>
      <point x="361" y="698" type="line"/>
      <point x="471" y="698" type="line"/>
    </contour>
    <contour>
      <point x="192" y="100" type="line"/>
      <point x="399" y="100" type="line"/>
      <point x="375" y="480" type="line"/>
    </contour>
  </outline>
</glyph>
<glyph name="Zeta" format="1">
  <advance width="555"/>
  <unicode hex="0396"/>
  <outline>
    <contour>
      <point x="661.365" y="698" type="line"/>
      <point x="637.983" y="588" type="line"/>
      <point x="192.318" y="105" type="line"/>
      <point x="542.318" y="105" type="line"/>
      <point x="520" y="0" type="line"/>
      <point x="32" y="0" type="line"/>
      <point x="53.4682" y="101" type="line"/>
      <point x="499.983" y="588" type="line"/>
      <point x="170.983" y="588" type="line"/>
      <point x="194.364" y="698" type="line"/>
    </contour>
  </outline>
</glyph>
<glyph name="Theta" format="1">
  <advance width="493"/>
  <unicode hex="0398"/>
  <outline>
    <contour>
      <point x="143.554" y="506" type="line" smooth="yes"/>
      <point x="172.461" y="642"/>
      <point x="267.978" y="715"/>
      <point x="399.978" y="715" type="curve" smooth="yes"/>
      <point x="531.978" y="715"/>
      <point x="591.115" y="635.667"/>
      <point x="563.341" y="505" type="curve" smooth="yes"/>
      <point x="495.323" y="185" type="line" smooth="yes"/>
      <point x="469.381" y="62.9546"/>
      <point x="370.432" y="-11"/>
      <point x="244.662" y="-11" type="curve" smooth="yes"/>
      <point x="126.464" y="-11"/>
      <point x="47.9067" y="56.0164"/>
      <point x="75.323" y="185" type="curve" smooth="yes"/>
    </contour>
    <contour>
      <point x="445.689" y="469" type="line" smooth="yes"/>
      <point x="463.827" y="554.333"/>
      <point x="454.017" y="602"/>
      <point x="372.684" y="602" type="curve" smooth="yes"/>
      <point x="285.736" y="602"/>
      <point x="262.38" y="547.526"/>
      <point x="245.902" y="470" type="curve" smooth="yes"/>
      <point x="231.023" y="400" type="line"/>
      <point x="431.023" y="400" type="line"/>
    </contour>
    <contour>
      <point x="259.561" y="101" type="curve" smooth="yes"/>
      <point x="337" y="101"/>
      <point x="376.447" y="143.244"/>
      <point x="389.787" y="206" type="curve" smooth="yes"/>
      <point x="410.192" y="302" type="line"/>
      <point x="210.192" y="302" type="line"/>
      <point x="189.362" y="204" type="line" smooth="yes"/>
      <point x="175.812" y="140.254"/>
      <point x="190" y="101"/>
    </contour>
  </outline>
</glyph>
<glyph name="Sigma" format="1">
  <advance width="523"/>
  <unicode hex="03A3"/>
  <outline>
    <contour>
      <point x="337.256" y="100" type="line" smooth="yes"/>
      <point x="389.256" y="100"/>
      <point x="420.764" y="108.667"/>
      <point x="442.883" y="150" type="curve"/>
      <point x="514.531" y="106" type="line"/>
      <point x="477.327" y="31.3333"/>
      <point x="426.667" y="0"/>
      <point x="348" y="0" type="curve" smooth="yes"/>
      <point x="25" y="0" type="line"/>
      <point x="331.622" y="384" type="line"/>
      <point x="190.427" y="703" type="line"/>
      <point x="618.427" y="703" type="line"/>
      <point x="559.983" y="588" type="line"/>
      <point x="368.983" y="588" type="line"/>
      <point x="463.047" y="386" type="line"/>
      <point x="233.256" y="100" type="line"/>
    </contour>
  </outline>
</glyph>
<glyph name="Upsilon" format="1">
  <advance width="518"/>
  <unicode hex="03A5"/>
  <outline>
    <contour>
      <point x="510.159" y="156" type="line" smooth="yes"/>
      <point x="487.77" y="50.6667"/>
      <point x="433.562" y="-8.33334"/>
      <point x="321.961" y="-19" type="curve"/>
      <point x="304.816" y="65" type="line"/>
      <point x="349.549" y="70.9281"/>
      <point x="386.729" y="92.8188"/>
      <point x="401.859" y="164" type="curve" smooth="yes"/>
      <point x="417.376" y="237" type="line"/>
      <point x="417.808" y="238.25"/>
      <point x="378.842" y="201.012"/>
      <point x="297.086" y="198" type="curve"/>
      <point x="238.42" y="198"/>
      <point x="186.304" y="210"/>
      <point x="148.989" y="254" type="curve" smooth="yes"/>
      <point x="115.875" y="292.667"/>
      <point x="105.332" y="345"/>
      <point x="119.786" y="413" type="curve" smooth="yes"/>
      <point x="180.365" y="698" type="line"/>
      <point x="290.365" y="698" type="line"/>
      <point x="231.699" y="422" type="line" smooth="yes"/>
      <point x="222.913" y="380.667"/>
      <point x="224.788" y="347.265"/>
      <point x="243" y="326" type="curve" smooth="yes"/>
      <point x="257.903" y="308.598"/>
      <point x="289" y="297"/>
      <point x="325.767" y="300" type="curve" smooth="yes"/>
      <point x="352.985" y="302.188"/>
      <point x="379.084" y="309.333"/>
      <point x="403.719" y="328" type="curve" smooth="yes"/>
      <point x="426.353" y="346.667"/>
      <point x="446.85" y="375.667"/>
      <point x="453.085" y="405" type="curve" smooth="yes"/>
      <point x="515.365" y="698" type="line"/>
      <point x="625.365" y="698" type="line"/>
    </contour>
  </outline>
</glyph>
<glyph name="Chi" format="1">
  <advance width="627"/>
  <unicode hex="03A7"/>
  <outline>
    <contour>
      <point x="413" y="465" type="line"/>
      <point x="603.364" y="698" type="line"/>
      <point x="752" y="698" type="line"/>
      <point x="462" y="344" type="line"/>
      <point x="603" y="0" type="line"/>
      <point x="464" y="0" type="line"/>
      <point x="369.077" y="232.318" type="line"/>
      <point x="178" y="0" type="line"/>
      <point x="30" y="0" type="line"/>
      <point x="319" y="351" type="line"/>
      <point x="177" y="698" type="line"/>
      <point x="316.364" y="698" type="line"/>
    </contour>
  </outline>
</glyph>
<glyph name="Psi" format="1">
  <advance width="592"/>
  <unicode hex="03A8"/>
  <outline>
    <contour>
      <point x="232.612" y="431" type="line" smooth="yes"/>
      <point x="213.34" y="340.333"/>
      <point x="222.376" y="306"/>
      <point x="285.042" y="306" type="curve" smooth="yes"/>
      <point x="303.042" y="306" type="line"/>
      <point x="386.364" y="698" type="line"/>
      <point x="496.364" y="698" type="line"/>
      <point x="413.042" y="306" type="line"/>
      <point x="436.042" y="306" type="line" smooth="yes"/>
      <point x="496.042" y="306"/>
      <point x="523.198" y="339.667"/>
      <point x="543.037" y="433" type="curve" smooth="yes"/>
      <point x="570.669" y="563" type="line" smooth="yes"/>
      <point x="585.924" y="634.767"/>
      <point x="548.523" y="663.225"/>
      <point x="545.35" y="665" type="curve"/>
      <point x="653.49" y="708" type="line"/>
      <point x="670.306" y="698.592"/>
      <point x="695.981" y="649.149"/>
      <point x="674.481" y="548" type="curve" smooth="yes"/>
      <point x="644.298" y="406" type="line" smooth="yes"/>
      <point x="618.508" y="284.667"/>
      <point x="544.275" y="213"/>
      <point x="416.275" y="213" type="curve" smooth="yes"/>
      <point x="393.275" y="213" type="line"/>
      <point x="348" y="0" type="line"/>
      <point x="238" y="0" type="line"/>
      <point x="283.275" y="213" type="line"/>
      <point x="265.275" y="213" type="line" smooth="yes"/>
      <point x="139.941" y="213"/>
      <point x="92.5078" y="284.667"/>
      <point x="118.298" y="406" type="curve" smooth="yes"/>
      <point x="180.364" y="698" type="line"/>
      <point x="289.364" y="698" type="line"/>
    </contour>
  </outline>
</glyph>
<glyph name="alpha" format="1">
  <advance width="442"/>
  <unicode hex="03B1"/>
  <outline>
    <contour>
      <point x="508.09" y="485" type="line"/>
      <point x="495.304" y="443.667"/>
      <point x="486.219" y="410.333"/>
      <point x="481.685" y="389" type="curve" smooth="yes"/>
      <point x="400.063" y="5" type="line"/>
      <point x="401.214" y="4.6667"/>
      <point x="271.332" y="-3.66663"/>
      <point x="195.15" y="-4" type="curve"/>
      <point x="72.2347" y="-4"/>
      <point x="49.3355" y="76.8525"/>
      <point x="68.9221" y="169" type="curve" smooth="yes"/>
      <point x="108.245" y="354" type="line"/>
      <point x="134.822" y="469.655"/>
      <point x="196.662" y="506"/>
      <point x="275" y="506" type="curve" smooth="yes"/>
      <point x="336.333" y="506"/>
      <point x="385.507" y="490"/>
      <point x="400.09" y="485" type="curve"/>
      <point x="400.09" y="485"/>
      <point x="406.803" y="499.333"/>
      <point x="414.404" y="510" type="curve"/>
    </contour>
    <contour>
      <point x="178.71" y="168" type="line" smooth="yes"/>
      <point x="164.822" y="102.667"/>
      <point x="185.705" y="88"/>
      <point x="233.705" y="88" type="curve" smooth="yes"/>
      <point x="256.072" y="88"/>
      <point x="280.27" y="88.447"/>
      <point x="306.343" y="91" type="curve"/>
      <point x="369.047" y="386" type="line"/>
      <point x="349.981" y="396.667"/>
      <point x="311.71" y="405.307"/>
      <point x="289.298" y="406" type="curve" smooth="yes"/>
      <point x="268.595" y="406.641"/>
      <point x="228.628" y="402.849"/>
      <point x="217.607" y="351" type="curve" smooth="yes"/>
    </contour>
  </outline>
</glyph>
<glyph name="beta" format="1">
  <advance width="600"/>
  <unicode hex="03B2"/>
  <outline>
    <contour>
      <point x="155.603" y="541.759" type="line" smooth="yes"/>
      <point x="176.734" y="638.058"/>
      <point x="242.363" y="702"/>
      <point x="346.32" y="702" type="curve" smooth="yes"/>
      <point x="436.987" y="702"/>
      <point x="488.178" y="640.667"/>
      <point x="469.756" y="554" type="curve" smooth="yes"/>
      <point x="456.72" y="492.667"/>
      <point x="414.362" y="437.667"/>
      <point x="349.66" y="403" type="curve"/>
      <point x="376.66" y="403" type="line" smooth="yes"/>
      <point x="449.72" y="403"/>
      <point x="489.764" y="356.443"/>
      <point x="468.202" y="255" type="curve" smooth="yes"/>
      <point x="445.946" y="155" type="line"/>
      <point x="414.302" y="24.9496"/>
      <point x="354.895" y="-10.1836"/>
      <point x="242.752" y="-10.1836" type="curve" smooth="yes"/>
      <point x="222.642" y="-10.1836"/>
      <point x="175" y="-2"/>
      <point x="154" y="4.9727" type="curve"/>
      <point x="107" y="-215" type="line"/>
      <point x="-2" y="-190" type="line"/>
    </contour>
    <contour>
      <point x="267.143" y="537" type="curve" smooth="yes"/>
      <point x="239.298" y="406" type="line"/>
      <point x="271.612" y="431" type="line" smooth="yes"/>
      <point x="318.214" y="468.333"/>
      <point x="352.412" y="505.333"/>
      <point x="361.481" y="548" type="curve" smooth="yes"/>
      <point x="367.149" y="574.667"/>
      <point x="354.442" y="598"/>
      <point x="329.109" y="598" type="curve" smooth="yes"/>
      <point x="296.888" y="598"/>
      <point x="274.051" y="569.989"/>
    </contour>
    <contour>
      <point x="173" y="95" type="line"/>
      <point x="172.643" y="94.8889"/>
      <point x="213.033" y="91.1111"/>
      <point x="231.343" y="91" type="curve"/>
      <point x="307.049" y="91"/>
      <point x="326" y="124"/>
      <point x="335.772" y="173" type="curve" smooth="yes"/>
      <point x="356.425" y="271.471" type="line" smooth="yes"/>
      <point x="364.32" y="309.117"/>
      <point x="341.147" y="324.519"/>
      <point x="309.693" y="324.519" type="curve" smooth="yes"/>
      <point x="295.026" y="324.519"/>
      <point x="262.335" y="321.75"/>
      <point x="247" y="319" type="curve" smooth="yes"/>
      <point x="219.115" y="314" type="line"/>
    </contour>
  </outline>
</glyph>
<glyph name="gamma" format="1">
  <advance width="515"/>
  <unicode hex="03B3"/>
  <outline>
    <contour>
      <point x="590" y="466" type="line"/>
      <point x="551" y="450"/>
      <point x="524" y="436"/>
      <point x="491" y="372" type="curve" smooth="yes"/>
      <point x="269" y="-55" type="line" smooth="yes"/>
      <point x="225" y="-139"/>
      <point x="184" y="-202"/>
      <point x="76" y="-202" type="curve"/>
      <point x="63" y="-116" type="line"/>
      <point x="109" y="-116"/>
      <point x="128" y="-101"/>
      <point x="158" y="-51" type="curve"/>
      <point x="203" y="33" type="line"/>
      <point x="174" y="43"/>
      <point x="140" y="74"/>
      <point x="136" y="158" type="curve" smooth="yes"/>
      <point x="119" y="499" type="line"/>
      <point x="246" y="499" type="line"/>
      <point x="234" y="160" type="line" smooth="yes"/>
      <point x="233" y="138"/>
      <point x="255" y="137"/>
      <point x="255" y="137" type="curve"/>
      <point x="366" y="356" type="line" smooth="yes"/>
      <point x="422" y="467"/>
      <point x="455" y="500"/>
      <point x="547" y="520" type="curve"/>
    </contour>
  </outline>
</glyph>
<glyph name="delta" format="1">
  <advance width="436"/>
  <unicode hex="03B4"/>
  <outline>
    <contour>
      <point x="335.983" y="588" type="line" smooth="yes"/>
      <point x="327.872" y="588"/>
      <point x="313.628" y="581.624"/>
      <point x="310.945" y="569" type="curve" smooth="yes"/>
      <point x="309.663" y="562.97"/>
      <point x="311.531" y="558.576"/>
      <point x="316.544" y="553" type="curve" smooth="yes"/>
      <point x="340" y="529"/>
      <point x="367" y="506"/>
      <point x="391" y="483" type="curve" smooth="yes"/>
      <point x="419" y="456"/>
      <point x="443" y="428"/>
      <point x="456" y="397" type="curve" smooth="yes"/>
      <point x="468.672" y="366.019"/>
      <point x="472.435" y="326.667"/>
      <point x="462.516" y="280" type="curve" smooth="yes"/>
      <point x="441.898" y="183" type="line" smooth="yes"/>
      <point x="415.257" y="57.6667"/>
      <point x="337" y="-9"/>
      <point x="212" y="-9" type="curve" smooth="yes"/>
      <point x="103.673" y="-9"/>
      <point x="42.5401" y="59"/>
      <point x="68.8972" y="183" type="curve" smooth="yes"/>
      <point x="89.5151" y="280" type="line" smooth="yes"/>
      <point x="99.4344" y="326.667"/>
      <point x="117.866" y="366.333"/>
      <point x="144.384" y="397" type="curve" smooth="yes"/>
      <point x="167.947" y="424.546"/>
      <point x="214.716" y="452.084"/>
      <point x="262.711" y="455.873" type="curve"/>
      <point x="248" y="473" type="line" smooth="yes"/>
      <point x="220.525" y="504.987"/>
      <point x="202.842" y="540.015"/>
      <point x="205.794" y="573" type="curve" smooth="yes"/>
      <point x="214.82" y="666.799"/>
      <point x="316.796" y="700"/>
      <point x="399.789" y="700" type="curve" smooth="yes"/>
      <point x="516.789" y="700" type="line"/>
      <point x="471.983" y="588" type="line"/>
    </contour>
    <contour>
      <point x="351.429" y="289" type="line" smooth="yes"/>
      <point x="354.707" y="304.423"/>
      <point x="360.809" y="350.539"/>
      <point x="333.545" y="378.829" type="curve" smooth="yes"/>
      <point x="317.96" y="395" type="line"/>
      <point x="297.102" y="390.998"/>
      <point x="265.462" y="382.27"/>
      <point x="239.67" y="356" type="curve" smooth="yes"/>
      <point x="224.269" y="340"/>
      <point x="211.522" y="317.667"/>
      <point x="205.004" y="287" type="curve" smooth="yes"/>
      <point x="181.197" y="175" type="line" smooth="yes"/>
      <point x="172.634" y="134.713"/>
      <point x="184.421" y="99"/>
      <point x="237" y="99" type="curve" smooth="yes"/>
      <point x="290.313" y="99"/>
      <point x="318.623" y="134.663"/>
      <point x="327.197" y="175" type="curve" smooth="yes"/>
    </contour>
  </outline>
</glyph>
<glyph name="zeta" format="1">
  <advance width="438"/>
  <unicode hex="03B6"/>
  <outline>
    <contour>
      <point x="542.109" y="598" type="line"/>
      <point x="490.961" y="565.782"/>
      <point x="435.546" y="519.247"/>
      <point x="383.689" y="469" type="curve" smooth="yes"/>
      <point x="344.306" y="430.84"/>
      <point x="305.351" y="389"/>
      <point x="274.182" y="349" type="curve" smooth="yes"/>
      <point x="228.379" y="290.333"/>
      <point x="194.738" y="234"/>
      <point x="185.386" y="190" type="curve" smooth="yes"/>
      <point x="180" y="164.667"/>
      <point x="184.494" y="141.506"/>
      <point x="203.931" y="122" type="curve" smooth="yes"/>
      <point x="240.11" y="85.8064"/>
      <point x="344.152" y="91"/>
      <point x="411.093" y="91" type="curve"/>
      <point x="344.575" y="-213" type="line"/>
      <point x="240" y="-189" type="line"/>
      <point x="282" y="-6" type="line"/>
      <point x="212.902" y="-11.1836"/>
      <point x="125.8" y="1.29194"/>
      <point x="89.6278" y="50" type="curve" smooth="yes"/>
      <point x="64.8446" y="83.3723"/>
      <point x="55.2072" y="128"/>
      <point x="67.1104" y="184" type="curve" smooth="yes"/>
      <point x="80.1472" y="245.333"/>
      <point x="116.189" y="317.667"/>
      <point x="177.96" y="395" type="curve" smooth="yes"/>
      <point x="210.746" y="436.333"/>
      <point x="250.623" y="479.667"/>
      <point x="296.742" y="521" type="curve" smooth="yes"/>
      <point x="314.884" y="537.681"/>
      <point x="316.503" y="540.543"/>
      <point x="371.983" y="588" type="curve"/>
      <point x="221.983" y="588" type="line"/>
      <point x="245.365" y="698" type="line"/>
      <point x="516.365" y="698" type="line"/>
    </contour>
  </outline>
</glyph>
<glyph name="eta" format="1">
  <advance width="445"/>
  <unicode hex="03B7"/>
  <outline>
    <contour>
      <point x="370.907" y="343" type="line" smooth="yes"/>
      <point x="378.917" y="380.018"/>
      <point x="361.932" y="407.99"/>
      <point x="318.148" y="410" type="curve"/>
      <point x="296.815" y="410"/>
      <point x="267.064" y="403.333"/>
      <point x="230.047" y="386" type="curve"/>
      <point x="148" y="0" type="line"/>
      <point x="39" y="0" type="line"/>
      <point x="145.066" y="499" type="line"/>
      <point x="254.066" y="499" type="line"/>
      <point x="249.177" y="476" type="line"/>
      <point x="269.061" y="488"/>
      <point x="314.858" y="509"/>
      <point x="356.191" y="509" type="curve" smooth="yes"/>
      <point x="434.806" y="509"/>
      <point x="507.238" y="472.95"/>
      <point x="480.332" y="345" type="curve" smooth="yes"/>
      <point x="361.363" y="-214" type="line"/>
      <point x="257.464" y="-190" type="line"/>
    </contour>
  </outline>
</glyph>
<glyph name="kappa" format="1">
  <advance width="474"/>
  <unicode hex="03BA"/>
  <outline>
    <contour>
      <point x="390.796" y="159" type="line"/>
      <point x="417.644" y="109.667"/>
      <point x="437.355" y="97.3333"/>
      <point x="462.405" y="96" type="curve"/>
      <point x="408.787" y="-1" type="line"/>
      <point x="386.121" y="-1"/>
      <point x="365.659" y="4.66667"/>
      <point x="347.401" y="16" type="curve"/>
      <point x="331.568" y="29.3333"/>
      <point x="317.594" y="42"/>
      <point x="309.478" y="54" type="curve" smooth="yes"/>
      <point x="302.695" y="66"/>
      <point x="292.996" y="84.6667"/>
      <point x="278.381" y="110" type="curve"/>
      <point x="223.55" y="219" type="line"/>
      <point x="191.449" y="195" type="line"/>
      <point x="150" y="0" type="line"/>
      <point x="40" y="0" type="line"/>
      <point x="148.404" y="510" type="line"/>
      <point x="255.853" y="498" type="line"/>
      <point x="220.781" y="333" type="line"/>
      <point x="410.066" y="499" type="line"/>
      <point x="546.066" y="499" type="line"/>
      <point x="321.767" y="300" type="line"/>
    </contour>
  </outline>
</glyph>
<glyph name="lambda" format="1">
  <advance width="516"/>
  <unicode hex="03BB"/>
  <outline>
    <contour>
      <point x="439.995" y="127" type="line"/>
      <point x="450.632" y="61.5195"/>
      <point x="467.127" y="51.4228"/>
      <point x="501.589" y="31" type="curve"/>
      <point x="501.589" y="31"/>
      <point x="485.443" y="19.3333"/>
      <point x="435.324" y="-22" type="curve"/>
      <point x="351.76" y="-2.04416"/>
      <point x="333.299" y="33.2905"/>
      <point x="322.183" y="142" type="curve"/>
      <point x="316.164" y="189.882"/>
      <point x="307.685" y="358.906"/>
      <point x="307.095" y="358" type="curve"/>
      <point x="307.095" y="358"/>
      <point x="301.004" y="356"/>
      <point x="298.82" y="352" type="curve" smooth="yes"/>
      <point x="297.366" y="347.416"/>
      <point x="149.404" y="-3.22654"/>
      <point x="150.788" y="-1" type="curve"/>
      <point x="23.7876" y="-1" type="line"/>
      <point x="118.602" y="184.755"/>
      <point x="170.085" y="290.844"/>
      <point x="203.245" y="354" type="curve" smooth="yes"/>
      <point x="250.062" y="440.997"/>
      <point x="258.492" y="447.395"/>
      <point x="294.39" y="477" type="curve"/>
      <point x="286.694" y="549" type="line"/>
      <point x="279.369" y="598.678"/>
      <point x="265.025" y="614"/>
      <point x="221.51" y="614" type="curve"/>
      <point x="270.79" y="700" type="line"/>
      <point x="391.118" y="700"/>
      <point x="395.71" y="617.788"/>
      <point x="400.756" y="554" type="curve"/>
    </contour>
  </outline>
</glyph>
<glyph name="sigma1" format="1">
  <advance width="351"/>
  <unicode hex="03C2"/>
  <outline>
    <contour>
      <point x="184" y="218" type="line" smooth="yes"/>
      <point x="177" y="187"/>
      <point x="198" y="166"/>
      <point x="215" y="145" type="curve"/>
      <point x="217" y="143"/>
      <point x="220" y="140"/>
      <point x="223" y="137" type="curve"/>
      <point x="229" y="129"/>
      <point x="236" y="121"/>
      <point x="242" y="114" type="curve"/>
      <point x="245" y="111"/>
      <point x="247" y="108"/>
      <point x="248" y="106" type="curve"/>
      <point x="275" y="75"/>
      <point x="296" y="38"/>
      <point x="284" y="-21" type="curve" smooth="yes"/>
      <point x="273" y="-72"/>
      <point x="233" y="-114"/>
      <point x="190" y="-147" type="curve"/>
      <point x="136" y="-83" type="line"/>
      <point x="155" y="-68"/>
      <point x="173" y="-50"/>
      <point x="180" y="-26" type="curve"/>
      <point x="185" y="1"/>
      <point x="171" y="23"/>
      <point x="154" y="43" type="curve"/>
      <point x="116" y="84" type="line"/>
      <point x="103" y="100"/>
      <point x="88" y="118"/>
      <point x="80" y="141" type="curve"/>
      <point x="71" y="164"/>
      <point x="67" y="190"/>
      <point x="75" y="222" type="curve"/>
      <point x="75" y="221"/>
      <point x="77" y="229"/>
      <point x="80" y="245" type="curve"/>
      <point x="87" y="276"/>
      <point x="95" y="318"/>
      <point x="102" y="351" type="curve" smooth="yes"/>
      <point x="105" y="368"/>
      <point x="107" y="377"/>
      <point x="108" y="378" type="curve"/>
      <point x="116" y="409"/>
      <point x="137" y="440"/>
      <point x="170" y="464" type="curve" smooth="yes"/>
      <point x="203" y="488"/>
      <point x="250" y="505"/>
      <point x="311" y="505" type="curve" smooth="yes"/>
      <point x="351" y="505"/>
      <point x="394" y="493"/>
      <point x="422" y="469" type="curve"/>
      <point x="366" y="378" type="line"/>
      <point x="346" y="390"/>
      <point x="321" y="398"/>
      <point x="286" y="398" type="curve" smooth="yes"/>
      <point x="259" y="398"/>
      <point x="240" y="394"/>
      <point x="231" y="386" type="curve" smooth="yes"/>
      <point x="221" y="377"/>
      <point x="216" y="370"/>
      <point x="215" y="363" type="curve"/>
    </contour>
  </outline>
</glyph>
<glyph name="sigma" format="1">
  <advance width="494"/>
  <unicode hex="03C3"/>
  <outline>
    <contour>
      <point x="568.051" y="466" type="line"/>
      <point x="531.948" y="426.437"/>
      <point x="493.326" y="410.874"/>
      <point x="461.51" y="407" type="curve"/>
      <point x="472.693" y="384.333"/>
      <point x="475.387" y="354.667"/>
      <point x="467.168" y="316" type="curve" smooth="yes"/>
      <point x="439.11" y="184" type="line" smooth="yes"/>
      <point x="414.363" y="67.5716"/>
      <point x="338.9" y="-10"/>
      <point x="215.874" y="-10" type="curve" smooth="yes"/>
      <point x="83.6808" y="-10"/>
      <point x="47.656" y="83.0651"/>
      <point x="69.1104" y="184" type="curve" smooth="yes"/>
      <point x="98.0181" y="320" type="line" smooth="yes"/>
      <point x="129.592" y="468.542"/>
      <point x="236.351" y="510"/>
      <point x="324.404" y="510" type="curve" smooth="yes"/>
      <point x="365.737" y="510"/>
      <point x="403" y="500"/>
      <point x="444.703" y="502" type="curve" smooth="yes"/>
      <point x="465" y="503"/>
      <point x="502.338" y="520.667"/>
      <point x="528.206" y="542" type="curve"/>
    </contour>
    <contour>
      <point x="354.443" y="322" type="line" smooth="yes"/>
      <point x="362.339" y="359.145"/>
      <point x="360.609" y="389.166"/>
      <point x="349.786" y="413" type="curve"/>
      <point x="337.019" y="415.667"/>
      <point x="327.969" y="417"/>
      <point x="314.636" y="417" type="curve" smooth="yes"/>
      <point x="276.63" y="417"/>
      <point x="224.174" y="396.006"/>
      <point x="210.144" y="330" type="curve" smooth="yes"/>
      <point x="177.41" y="176" type="line" smooth="yes"/>
      <point x="168.839" y="135.675"/>
      <point x="182.608" y="98"/>
      <point x="235.831" y="98" type="curve" smooth="yes"/>
      <point x="287.591" y="98"/>
      <point x="313.883" y="131.181"/>
      <point x="323.41" y="176" type="curve" smooth="yes"/>
    </contour>
  </outline>
</glyph>
<glyph name="quotedblbase" format="1">
  <advance width="369"/>
  <unicode hex="201E"/>
  <outline>
    <contour>
      <point x="45.4834" y="-73" type="line"/>
      <point x="60.1178" y="-54.3333"/>
      <point x="70.1773" y="-33.6667"/>
      <point x="76.8117" y="-15" type="curve"/>
      <point x="51.562" y="-8.33333"/>
      <point x="38.1883" y="15"/>
      <point x="44.1399" y="43" type="curve" smooth="yes"/>
      <point x="51.2251" y="76.3333"/>
      <point x="82.3474" y="102"/>
      <point x="115.681" y="102" type="curve" smooth="yes"/>
      <point x="147.681" y="102"/>
      <point x="169.225" y="76.3333"/>
      <point x="162.14" y="43" type="curve" smooth="yes"/>
      <point x="144.44" y="-48.1111"/>
      <point x="65.5103" y="-88.5556"/>
      <point x="67.0825" y="-89" type="curve"/>
    </contour>
    <contour>
      <point x="226.483" y="-73" type="line"/>
      <point x="239.784" y="-54.3333"/>
      <point x="249.511" y="-33.6667"/>
      <point x="254.812" y="-15" type="curve"/>
      <point x="232.229" y="-8.33333"/>
      <point x="217.188" y="15"/>
      <point x="223.14" y="43" type="curve" smooth="yes"/>
      <point x="230.225" y="76.3333"/>
      <point x="261.347" y="102"/>
      <point x="294.681" y="102" type="curve" smooth="yes"/>
      <point x="328.014" y="102"/>
      <point x="350.225" y="76.3333"/>
      <point x="343.14" y="43" type="curve" smooth="yes"/>
      <point x="325.44" y="-48.1111"/>
      <point x="246.51" y="-88.5556"/>
      <point x="248.082" y="-89" type="curve"/>
    </contour>
  </outline>
</glyph>
<glyph name="guilsinglright" format="1">
  <advance width="321"/>
  <unicode hex="203A"/>
  <outline>
    <contour>
      <point x="207.753" y="267" type="line"/>
      <point x="113.409" y="383" type="line"/>
      <point x="201.501" y="454" type="line"/>
      <point x="347.753" y="267" type="line"/>
      <point x="122.005" y="80" type="line"/>
      <point x="64.4584" y="148" type="line"/>
    </contour>
  </outline>
</glyph>
<glyph name="Euro" format="1">
  <advance width="426"/>
  <unicode hex="20AC"/>
  <outline>
    <component base="C"/>
    <contour>
      <point x="78.9213" y="376" type="line"/>
      <point x="101.24" y="481" type="line"/>
      <point x="458.24" y="481" type="line"/>
      <point x="435.921" y="376" type="line"/>
    </contour>
    <contour>
      <point x="46.6127" y="224" type="line"/>
      <point x="68.9311" y="329" type="line"/>
      <point x="425.931" y="329" type="line"/>
      <point x="403.613" y="224" type="line"/>
    </contour>
  </outline>
</glyph>
<glyph name="commaaccent" format="1">
  <advance width="266"/>
  <unicode hex="F6C3"/>
  <outline>
    <contour>
      <point x="50.8264" y="-236" type="line"/>
      <point x="65.4616" y="-217.333"/>
      <point x="72.9052" y="-198"/>
      <point x="81.1572" y="-178" type="curve"/>
      <point x="55.9079" y="-171.333"/>
      <point x="42.5352" y="-148"/>
      <point x="48.488" y="-120" type="curve" smooth="yes"/>
      <point x="55.2912" y="-88"/>
      <point x="87.6981" y="-61"/>
      <point x="121.031" y="-61" type="curve" smooth="yes"/>
      <point x="153.031" y="-61"/>
      <point x="173.291" y="-88"/>
      <point x="166.488" y="-120" type="curve"/>
      <point x="148.903" y="-210.556"/>
      <point x="69.5219" y="-253.111"/>
      <point x="71.2122" y="-253" type="curve"/>
    </contour>
  </outline>
</glyph>
<glyph name="ff" format="1">
  <advance width="522"/>
  <unicode hex="FB00"/>
  <outline>
    <contour>
      <point x="594" y="588" type="line"/>
      <point x="583" y="593"/>
      <point x="573" y="595"/>
      <point x="563" y="595" type="curve" smooth="yes"/>
      <point x="530" y="595"/>
      <point x="508" y="571"/>
      <point x="499" y="528" type="curve" smooth="yes"/>
      <point x="493" y="499" type="line"/>
      <point x="581" y="499" type="line"/>
      <point x="534" y="396" type="line"/>
      <point x="469" y="396" type="line"/>
      <point x="385" y="0" type="line"/>
      <point x="275" y="0" type="line"/>
      <point x="381" y="500" type="line" smooth="yes"/>
      <point x="387" y="528"/>
      <point x="393" y="554"/>
      <point x="405" y="582" type="curve"/>
      <point x="396" y="593"/>
      <point x="374" y="598"/>
      <point x="354" y="598" type="curve" smooth="yes"/>
      <point x="318" y="598"/>
      <point x="279" y="587"/>
      <point x="263" y="524" type="curve" smooth="yes"/>
      <point x="258" y="499" type="line"/>
      <point x="345" y="499" type="line"/>
      <point x="299" y="396" type="line"/>
      <point x="236" y="396" type="line"/>
      <point x="152" y="0" type="line"/>
      <point x="39" y="0" type="line"/>
      <point x="147" y="510" type="line" smooth="yes"/>
      <point x="172" y="625"/>
      <point x="248" y="705"/>
      <point x="384" y="705" type="curve" smooth="yes"/>
      <point x="417" y="705"/>
      <point x="449" y="696"/>
      <point x="485" y="681" type="curve"/>
      <point x="510" y="695"/>
      <point x="545" y="702"/>
      <point x="570" y="702" type="curve" smooth="yes"/>
      <point x="596" y="702"/>
      <point x="620" y="697"/>
      <point x="644" y="690" type="curve"/>
    </contour>
  </outline>
</glyph>
<glyph name="ffl" format="1">
  <advance width="649"/>
  <unicode hex="FB04"/>
  <outline>
    <contour>
      <point x="619" y="590" type="line"/>
      <point x="606" y="594"/>
      <point x="593" y="596"/>
      <point x="580" y="596" type="curve" smooth="yes"/>
      <point x="542" y="596"/>
      <point x="504" y="575"/>
      <point x="496" y="532" type="curve" smooth="yes"/>
      <point x="490" y="499" type="line"/>
      <point x="579" y="499" type="line"/>
      <point x="533" y="396" type="line"/>
      <point x="468" y="396" type="line"/>
      <point x="384" y="0" type="line"/>
      <point x="269" y="0" type="line"/>
      <point x="373" y="493" type="line" smooth="yes"/>
      <point x="386" y="556"/>
      <point x="395" y="568"/>
      <point x="404" y="582" type="curve"/>
      <point x="396" y="590"/>
      <point x="380" y="596"/>
      <point x="358" y="596" type="curve" smooth="yes"/>
      <point x="320" y="596"/>
      <point x="273" y="574"/>
      <point x="263" y="526" type="curve" smooth="yes"/>
      <point x="257" y="499" type="line"/>
      <point x="344" y="499" type="line"/>
      <point x="298" y="396" type="line"/>
      <point x="235" y="396" type="line"/>
      <point x="151" y="0" type="line"/>
      <point x="39" y="0" type="line"/>
      <point x="153" y="536" type="line" smooth="yes"/>
      <point x="164" y="586"/>
      <point x="222" y="703"/>
      <point x="377" y="703" type="curve" smooth="yes"/>
      <point x="412" y="703"/>
      <point x="448" y="697"/>
      <point x="487" y="681" type="curve"/>
      <point x="523" y="699"/>
      <point x="566" y="708"/>
      <point x="611" y="708" type="curve" smooth="yes"/>
      <point x="652" y="708"/>
      <point x="701" y="698"/>
      <point x="752" y="685" type="curve"/>
      <point x="606" y="0" type="line"/>
      <point x="494" y="0" type="line"/>
    </contour>
  </outline>
</glyph>
<glyph name="commaturnedabovecomb" format="1">
  <advance width="266"/>
  <outline>
    <contour>
      <point x="319.348" y="726" type="line"/>
      <point x="306.329" y="708.667"/>
      <point x="296.106" y="685.667"/>
      <point x="290.804" y="667" type="curve"/>
      <point x="313.67" y="661.667"/>
      <point x="328.426" y="637"/>
      <point x="322.473" y="609" type="curve" smooth="yes"/>
      <point x="315.387" y="575.667"/>
      <point x="283.263" y="550"/>
      <point x="249.93" y="550" type="curve" smooth="yes"/>
      <point x="216.597" y="550"/>
      <point x="195.387" y="575.667"/>
      <point x="202.473" y="609" type="curve"/>
      <point x="220.177" y="700.111"/>
      <point x="299.109" y="740.556"/>
      <point x="297.537" y="741" type="curve"/>
    </contour>
  </outline>
</glyph>
<glyph name="ft" format="1">
  <advance width="500"/>
  <outline>
    <contour>
      <point x="404.057" y="132" type="line" smooth="yes"/>
      <point x="394.422" y="86.6667"/>
      <point x="418.275" y="75"/>
      <point x="464.942" y="75" type="curve"/>
      <point x="413.237" y="-13" type="line"/>
      <point x="313.804" y="-10.3333"/>
      <point x="273.935" y="37.3334"/>
      <point x="294.057" y="132" type="curve" smooth="yes"/>
      <point x="394.597" y="605" type="line"/>
      <point x="382.114" y="609"/>
      <point x="367.114" y="609"/>
      <point x="348.447" y="609" type="curve" smooth="yes"/>
      <point x="316.385" y="609"/>
      <point x="277.876" y="592.199"/>
      <point x="268.481" y="548" type="curve" smooth="yes"/>
      <point x="258.066" y="499" type="line"/>
      <point x="344.066" y="499" type="line"/>
      <point x="298.172" y="396" type="line"/>
      <point x="236.172" y="396" type="line"/>
      <point x="152" y="0" type="line"/>
      <point x="114.667" y="0"/>
      <point x="76.3333" y="0"/>
      <point x="39" y="0" type="curve"/>
      <point x="148.679" y="516" type="line" smooth="yes"/>
      <point x="171.907" y="625.28"/>
      <point x="245.465" y="708"/>
      <point x="380.49" y="708" type="curve" smooth="yes"/>
      <point x="424.49" y="708"/>
      <point x="466.335" y="701"/>
      <point x="521.601" y="685" type="curve"/>
      <point x="482.066" y="499" type="line"/>
      <point x="577.066" y="499" type="line"/>
      <point x="531.172" y="396" type="line"/>
      <point x="460.172" y="396" type="line"/>
    </contour>
  </outline>
</glyph>
<glyph name="sigma_tau" format="1">
  <advance width="832"/>
  <outline>
    <contour>
      <point x="883" y="397" type="line"/>
      <point x="825" y="386"/>
      <point x="764" y="382"/>
      <point x="704" y="382" type="curve" smooth="yes"/>
      <point x="621" y="382"/>
      <point x="540" y="390"/>
      <point x="466" y="402" type="curve"/>
      <point x="477" y="380"/>
      <point x="478" y="356"/>
      <point x="469" y="317" type="curve" smooth="yes"/>
      <point x="440" y="185" type="line" smooth="yes"/>
      <point x="414" y="68"/>
      <point x="340" y="-10"/>
      <point x="217" y="-10" type="curve" smooth="yes"/>
      <point x="84" y="-10"/>
      <point x="47" y="83"/>
      <point x="69" y="185" type="curve" smooth="yes"/>
      <point x="99" y="321" type="line" smooth="yes"/>
      <point x="132" y="470"/>
      <point x="237" y="512"/>
      <point x="326" y="512" type="curve" smooth="yes"/>
      <point x="374" y="512"/>
      <point x="421" y="507"/>
      <point x="469" y="501" type="curve" smooth="yes"/>
      <point x="549" y="491"/>
      <point x="629" y="489"/>
      <point x="710" y="489" type="curve" smooth="yes"/>
      <point x="773" y="489"/>
      <point x="838" y="492"/>
      <point x="906" y="501" type="curve"/>
    </contour>
    <contour>
      <point x="356" y="323" type="line" smooth="yes"/>
      <point x="364" y="360"/>
      <point x="362" y="390"/>
      <point x="351" y="414" type="curve"/>
      <point x="338" y="417"/>
      <point x="329" y="418"/>
      <point x="320" y="418" type="curve" smooth="yes"/>
      <point x="278" y="418"/>
      <point x="225" y="397"/>
      <point x="211" y="331" type="curve" smooth="yes"/>
      <point x="178" y="177" type="line" smooth="yes"/>
      <point x="170" y="136"/>
      <point x="183" y="99"/>
      <point x="237" y="99" type="curve" smooth="yes"/>
      <point x="289" y="99"/>
      <point x="315" y="132"/>
      <point x="325" y="177" type="curve" smooth="yes"/>
    </contour>
    <contour>
      <point x="720" y="148" type="line" smooth="yes"/>
      <point x="710" y="97"/>
      <point x="721" y="72"/>
      <point x="765" y="56" type="curve"/>
      <point x="701" y="-20" type="line"/>
      <point x="625" y="0"/>
      <point x="591" y="55"/>
      <point x="607" y="133" type="curve" smooth="yes"/>
      <point x="663" y="397" type="line"/>
      <point x="774" y="397" type="line"/>
    </contour>
  </outline>
</glyph>
<glyph name="tonoscomb" format="1">
  <advance width="266"/>
  <outline>
    <contour>
      <point x="349.625" y="671" type="curve" smooth="yes"/>
      <point x="275.684" y="596" type="line"/>
      <point x="231.684" y="596" type="line"/>
      <point x="286.34" y="712" type="line" smooth="yes"/>
      <point x="297.224" y="735.529"/>
      <point x="330.031" y="758.228"/>
      <point x="357.504" y="741" type="curve" smooth="yes"/>
      <point x="379.662" y="727.106"/>
      <point x="373.11" y="693.667"/>
    </contour>
  </outline>
</glyph>
<glyph name="uni030A" format="1">
  <advance width="266"/>
  <outline>
    <contour>
      <point x="329" y="774"/>
      <point x="355" y="762"/>
      <point x="371" y="742" type="curve" smooth="yes"/>
      <point x="387" y="721"/>
      <point x="394" y="693"/>
      <point x="387" y="661" type="curve" smooth="yes"/>
      <point x="380" y="630"/>
      <point x="361" y="601"/>
      <point x="337" y="581" type="curve" smooth="yes"/>
      <point x="312" y="560"/>
      <point x="281" y="547"/>
      <point x="249" y="547" type="curve" smooth="yes"/>
      <point x="218" y="547"/>
      <point x="192" y="560"/>
      <point x="176" y="581" type="curve"/>
      <point x="159" y="601"/>
      <point x="152" y="630"/>
      <point x="159" y="661" type="curve" smooth="yes"/>
      <point x="166" y="693"/>
      <point x="185" y="721"/>
      <point x="210" y="742" type="curve" smooth="yes"/>
      <point x="235" y="762"/>
      <point x="266" y="774"/>
      <point x="297" y="774" type="curve" smooth="yes"/>
    </contour>
    <contour>
      <point x="264" y="692"/>
      <point x="246" y="678"/>
      <point x="242" y="661" type="curve" smooth="yes"/>
      <point x="238" y="642"/>
      <point x="250" y="629"/>
      <point x="266" y="629" type="curve" smooth="yes"/>
      <point x="283" y="629"/>
      <point x="300" y="642"/>
      <point x="304" y="661" type="curve" smooth="yes"/>
      <point x="308" y="678"/>
      <point x="297" y="692"/>
      <point x="280" y="692" type="curve" smooth="yes"/>
    </contour>
  </outline>
</glyph>
<glyph name="uni030C" format="1">
  <advance width="266"/>
  <outline>
    <contour>
      <point x="415" y="716" type="line"/>
      <point x="255" y="588" type="line"/>
      <point x="154" y="715" type="line"/>
      <point x="219" y="767" type="line"/>
      <point x="276" y="686" type="line"/>
      <point x="374" y="768" type="line"/>
    </contour>
  </outline>
</glyph>
